<svg xmlns="http://www.w3.org/2000/svg" xmlns:xlink="http://www.w3.org/1999/xlink" width="25.07mm" height="85.09mm" viewBox="4010 2864.3 98.7 335"><title></title><style type="text/css">
*[layerid="1"] {stroke:#000000;fill:#000000;}
*[layerid="2"] {stroke:#000000;fill:#000000;}
*[layerid="3"] {stroke:#000000;fill:#000000;}
*[layerid="4"] {stroke:#000000;fill:#000000;}
*[layerid="5"] {stroke:#000000;fill:#000000;}
*[layerid="6"] {stroke:#000000;fill:#000000;}
*[layerid="7"] {stroke:#000000;fill:#000000;}
*[layerid="8"] {stroke:#000000;fill:#000000;}
*[layerid="9"] {stroke:#000000;fill:#000000;}
*[layerid="10"] {stroke:#000000;fill:#000000;}
*[layerid="11"] {stroke:#000000;fill:#000000;}
*[layerid="12"] {stroke:#000000;fill:#000000;}
*[layerid="13"] {stroke:#000000;fill:#000000;}
*[layerid="14"] {stroke:#000000;fill:#000000;}
*[layerid="15"] {stroke:#000000;fill:#000000;}
*[layerid="19"] {stroke:#000000;fill:#000000;}
*[layerid="21"] {stroke:#000000;fill:#000000;}
*[layerid="22"] {stroke:#000000;fill:#000000;}
*[layerid="23"] {stroke:#000000;fill:#000000;}
*[layerid="24"] {stroke:#000000;fill:#000000;}
*[layerid="25"] {stroke:#000000;fill:#000000;}
*[layerid="26"] {stroke:#000000;fill:#000000;}
*[layerid="27"] {stroke:#000000;fill:#000000;}
*[layerid="28"] {stroke:#000000;fill:#000000;}
*[layerid="29"] {stroke:#000000;fill:#000000;}
*[layerid="30"] {stroke:#000000;fill:#000000;}
*[layerid="31"] {stroke:#000000;fill:#000000;}
*[layerid="32"] {stroke:#000000;fill:#000000;}
*[layerid="33"] {stroke:#000000;fill:#000000;}
*[layerid="34"] {stroke:#000000;fill:#000000;}
*[layerid="35"] {stroke:#000000;fill:#000000;}
*[layerid="36"] {stroke:#000000;fill:#000000;}
*[layerid="37"] {stroke:#000000;fill:#000000;}
*[layerid="38"] {stroke:#000000;fill:#000000;}
*[layerid="39"] {stroke:#000000;fill:#000000;}
*[layerid="40"] {stroke:#000000;fill:#000000;}
*[layerid="41"] {stroke:#000000;fill:#000000;}
*[layerid="42"] {stroke:#000000;fill:#000000;}
*[layerid="43"] {stroke:#000000;fill:#000000;}
*[layerid="44"] {stroke:#000000;fill:#000000;}
*[layerid="45"] {stroke:#000000;fill:#000000;}
*[layerid="46"] {stroke:#000000;fill:#000000;}
*[layerid="47"] {stroke:#000000;fill:#000000;}
*[layerid="48"] {stroke:#000000;fill:#000000;}
*[layerid="49"] {stroke:#000000;fill:#000000;}
*[layerid="50"] {stroke:#000000;fill:#000000;}
*[layerid="51"] {stroke:#000000;fill:#000000;}
*[layerid="52"] {stroke:#000000;fill:#000000;}
*[layerid="99"] {stroke:#000000;fill:#000000;}
*[layerid="100"] {stroke:#000000;fill:#000000;}
*[layerid="Hole"] {stroke:#000000;fill:#000000;}
*[layerid="DRCError"] {stroke:#000000;fill:#000000;}
*[fill="none"] {fill: none;}
*[stroke="none"] {stroke: none;}
path, polyline, polygon, line {stroke-linecap:round;}
g[c_partid="part_pad"][layerid="1"] ellipse:not([c_etype="pad_outer"]) {fill:#000000;}
g[c_partid="part_pad"][layerid="1"] polygon:not([c_etype="pad_outer"]) {fill:#000000;}
g[c_partid="part_pad"][layerid="1"] polyline:not([c_etype="pad_outer"]) {stroke:#000000;}
g[c_partid="part_pad"][layerid="2"] ellipse:not([c_etype="pad_outer"]) {fill:#000000;}
g[c_partid="part_pad"][layerid="2"] polygon:not([c_etype="pad_outer"]) {fill:#000000;}
g[c_partid="part_pad"][layerid="2"] polyline:not([c_etype="pad_outer"]) {stroke:#000000;}
g[c_partid="part_pad"][layerid="11"] ellipse:not([c_etype="pad_outer"]) {fill:#000000;}
g[c_partid="part_pad"][layerid="11"] polygon:not([c_etype="pad_outer"]) {fill:#000000;}
g[c_partid="part_pad"][layerid="11"] polyline:not([c_etype="pad_outer"]) {stroke:#000000;}
g[c_partid="part_pad"][layerid="11"] circle {fill:#FFFFFF;}
g[c_partid="part_pad"][layerid="11"] > polyline:nth-of-type(2) {stroke:#FFFFFF;}
g[c_partid="part_pad"][layerid="11"][c_shape="ELLIPSE"]  polyline:nth-last-of-type(1) {stroke:#FFFFFF;}
g[c_partid="part_pad"][layerid="11"][c_shape="RECT"]  polyline:nth-last-of-type(1) {stroke:#FFFFFF;}
g[c_partid="part_pad"][layerid="11"][c_shape="POLYGON"]  polyline:nth-last-of-type(1) {stroke:#FFFFFF;}
g[c_partid="part_via"] > * + circle, #gCurParts g[c_partid="part_via"] > * + circle {fill:#FFFFFF;}
g[c_partid="part_pad"] > polygon[c_etype="pad_outer"], #gCurParts g[c_partid="part_pad"] > polygon[c_etype="pad_outer"] {stroke-linejoin: miter;stroke-miterlimit: 100;}
g[c_partid="part_hole"] > circle {fill: #FFFFFF;}path, polyline, polygon {stroke-linejoin:round;}
rect, circle, ellipse, polyline, line, polygon, path {shape-rendering:crispEdges;}
</style>
<rect x="4010" y="2864.3" width="98.7" height="335" fill="#FFFFFF" stroke="none"/><polyline points="4025.5 2996.5 4037 2996.5 4038.5 2998 4038.5 3008 4035 3008" stroke-width="1"  stroke-linecap="round" fill="none" layerid="2" net="S$2021" id="gge2020" locked="0" /><polyline points="4056.5 3039.5 4056.5 3046.5" stroke-width="1"  stroke-linecap="round" fill="none" layerid="2" net="S$2017" id="gge2016" locked="0" /><polyline points="4070 3003 4070 3026 4056.5 3039.5" stroke-width="1"  stroke-linecap="round" fill="none" layerid="2" net="S$2015" id="gge2014" locked="0" /><polyline points="4060 2953 4060 2993 4070 3003" stroke-width="1"  stroke-linecap="round" fill="none" layerid="2" net="S$2001" id="gge2000" locked="0" /><polyline points="4084.5 2963 4084.5 2983 4080 2983 4080 3028.5 4055 3053.5" stroke-width="1"  stroke-linecap="round" fill="none" layerid="2" net="S$1977" id="gge1976" locked="0" /><polyline points="4075 3053.5 4084 3053.5 4084 3003" stroke-width="1"  stroke-linecap="round" fill="none" layerid="2" net="S$1975" id="gge1974" locked="0" /><polyline points="4023 2977.5 4034.5 2977.5" stroke-width="1"  stroke-linecap="round" fill="none" layerid="2" net="S$1916" id="gge1915" locked="0" /><polyline points="4030 3043.5 4025 3043.5 4025 2996.5" stroke-width="1"  stroke-linecap="round" fill="none" layerid="2" net="S$1943" id="gge1942" locked="0" /><polyline points="4030 3053.5 4021 3053.5 4021 2889.5 4070 2889.5 4070 2883.5" stroke-width="1"  stroke-linecap="round" fill="none" layerid="2" net="S$1924" id="gge1923" locked="0" /><polyline points="4060 2943 4027.5 2943" stroke-width="1"  stroke-linecap="round" fill="none" layerid="2" net="S$1886" id="gge1885" locked="0" /><polyline points="4039.7244 3041 4039.7244 3048.9331 4080.2756 3048.9331 4080.2756 3028.0669 4039.7244 3028.0669 4039.7244 3036" stroke-width="0.7874"  stroke-linecap="round" fill="none" layerid="4" net="" id="gge591" locked="0" /><polyline points="4070 3010.5 4050 3010.5" stroke-width="1"  stroke-linecap="round" fill="none" layerid="4" net="" id="gge708" locked="0" /><polyline points="4050 3010.5 4050 3013.5" stroke-width="1"  stroke-linecap="round" fill="none" layerid="4" net="" id="gge709" locked="0" /><polyline points="4050 3013.5 4050 3016.5" stroke-width="1"  stroke-linecap="round" fill="none" layerid="4" net="" id="gge710" locked="0" /><polyline points="4050 3016.5 4070 3016.5" stroke-width="1"  stroke-linecap="round" fill="none" layerid="4" net="" id="gge711" locked="0" /><polyline points="4070 3016.5 4070 3013.5" stroke-width="1"  stroke-linecap="round" fill="none" layerid="4" net="" id="gge712" locked="0" /><polyline points="4070 3013.5 4070 3010.5" stroke-width="1"  stroke-linecap="round" fill="none" layerid="4" net="" id="gge713" locked="0" /><polyline points="4050 3013.5 4049 3013.5" stroke-width="1"  stroke-linecap="round" fill="none" layerid="4" net="" id="gge714" locked="0" /><polyline points="4070 3013.5 4071 3013.5" stroke-width="1"  stroke-linecap="round" fill="none" layerid="4" net="" id="gge715" locked="0" /><polyline points="4052.5 3011 4052.5 3016" stroke-width="1"  stroke-linecap="round" fill="none" layerid="4" net="" id="gge716" locked="0" /><polyline points="4054 2971 4047 2971" stroke-width="1"  stroke-linecap="round" fill="none" layerid="4" net="" id="gge767" locked="0" /><polyline points="4046 2972 4046 2973.5" stroke-width="1"  stroke-linecap="round" fill="none" layerid="4" net="" id="gge768" locked="0" /><polyline points="4046.5 2974 4046 2973.5" stroke-width="1"  stroke-linecap="round" fill="none" layerid="4" net="" id="gge769" locked="0" /><polyline points="4055 2972 4055 2973.5" stroke-width="1"  stroke-linecap="round" fill="none" layerid="4" net="" id="gge770" locked="0" /><polyline points="4054.5 2974 4055 2973.5" stroke-width="1"  stroke-linecap="round" fill="none" layerid="4" net="" id="gge771" locked="0" /><polyline points="4046.5 2993 4046 2993.5" stroke-width="1"  stroke-linecap="round" fill="none" layerid="4" net="" id="gge772" locked="0" /><polyline points="4046.5 2993 4046.5 2974" stroke-width="1"  stroke-linecap="round" fill="none" layerid="4" net="" id="gge773" locked="0" /><polyline points="4054.5 2993 4055 2993.5" stroke-width="1"  stroke-linecap="round" fill="none" layerid="4" net="" id="gge774" locked="0" /><polyline points="4054.5 2993 4054.5 2974" stroke-width="1"  stroke-linecap="round" fill="none" layerid="4" net="" id="gge775" locked="0" /><polyline points="4046 2995 4046 2993.5" stroke-width="1"  stroke-linecap="round" fill="none" layerid="4" net="" id="gge776" locked="0" /><polyline points="4055 2995 4055 2993.5" stroke-width="1"  stroke-linecap="round" fill="none" layerid="4" net="" id="gge777" locked="0" /><polyline points="4054 2996 4047 2996" stroke-width="1"  stroke-linecap="round" fill="none" layerid="4" net="" id="gge778" locked="0" /><polyline points="4073.5 2970.5 4066.5 2970.5" stroke-width="1"  stroke-linecap="round" fill="none" layerid="4" net="" id="gge808" locked="0" /><polyline points="4065.5 2971.5 4065.5 2973" stroke-width="1"  stroke-linecap="round" fill="none" layerid="4" net="" id="gge809" locked="0" /><polyline points="4066 2973.5 4065.5 2973" stroke-width="1"  stroke-linecap="round" fill="none" layerid="4" net="" id="gge810" locked="0" /><polyline points="4074.5 2971.5 4074.5 2973" stroke-width="1"  stroke-linecap="round" fill="none" layerid="4" net="" id="gge811" locked="0" /><polyline points="4074 2973.5 4074.5 2973" stroke-width="1"  stroke-linecap="round" fill="none" layerid="4" net="" id="gge812" locked="0" /><polyline points="4066 2992.5 4065.5 2993" stroke-width="1"  stroke-linecap="round" fill="none" layerid="4" net="" id="gge813" locked="0" /><polyline points="4066 2992.5 4066 2973.5" stroke-width="1"  stroke-linecap="round" fill="none" layerid="4" net="" id="gge814" locked="0" /><polyline points="4074 2992.5 4074.5 2993" stroke-width="1"  stroke-linecap="round" fill="none" layerid="4" net="" id="gge815" locked="0" /><polyline points="4074 2992.5 4074 2973.5" stroke-width="1"  stroke-linecap="round" fill="none" layerid="4" net="" id="gge816" locked="0" /><polyline points="4065.5 2994.5 4065.5 2993" stroke-width="1"  stroke-linecap="round" fill="none" layerid="4" net="" id="gge817" locked="0" /><polyline points="4074.5 2994.5 4074.5 2993" stroke-width="1"  stroke-linecap="round" fill="none" layerid="4" net="" id="gge818" locked="0" /><polyline points="4073.5 2995.5 4066.5 2995.5" stroke-width="1"  stroke-linecap="round" fill="none" layerid="4" net="" id="gge819" locked="0" /><polyline points="4088 2970.5 4081 2970.5" stroke-width="1"  stroke-linecap="round" fill="none" layerid="4" net="" id="gge847" locked="0" /><polyline points="4080 2971.5 4080 2973" stroke-width="1"  stroke-linecap="round" fill="none" layerid="4" net="" id="gge848" locked="0" /><polyline points="4080.5 2973.5 4080 2973" stroke-width="1"  stroke-linecap="round" fill="none" layerid="4" net="" id="gge849" locked="0" /><polyline points="4089 2971.5 4089 2973" stroke-width="1"  stroke-linecap="round" fill="none" layerid="4" net="" id="gge850" locked="0" /><polyline points="4088.5 2973.5 4089 2973" stroke-width="1"  stroke-linecap="round" fill="none" layerid="4" net="" id="gge851" locked="0" /><polyline points="4080.5 2992.5 4080 2993" stroke-width="1"  stroke-linecap="round" fill="none" layerid="4" net="" id="gge852" locked="0" /><polyline points="4080.5 2992.5 4080.5 2973.5" stroke-width="1"  stroke-linecap="round" fill="none" layerid="4" net="" id="gge853" locked="0" /><polyline points="4088.5 2992.5 4089 2993" stroke-width="1"  stroke-linecap="round" fill="none" layerid="4" net="" id="gge854" locked="0" /><polyline points="4088.5 2992.5 4088.5 2973.5" stroke-width="1"  stroke-linecap="round" fill="none" layerid="4" net="" id="gge855" locked="0" /><polyline points="4080 2994.5 4080 2993" stroke-width="1"  stroke-linecap="round" fill="none" layerid="4" net="" id="gge856" locked="0" /><polyline points="4089 2994.5 4089 2993" stroke-width="1"  stroke-linecap="round" fill="none" layerid="4" net="" id="gge857" locked="0" /><polyline points="4088 2995.5 4081 2995.5" stroke-width="1"  stroke-linecap="round" fill="none" layerid="4" net="" id="gge858" locked="0" /><polyline points="4038 2971 4031 2971" stroke-width="1"  stroke-linecap="round" fill="none" layerid="4" net="" id="gge932" locked="0" /><polyline points="4030 2972 4030 2973.5" stroke-width="1"  stroke-linecap="round" fill="none" layerid="4" net="" id="gge933" locked="0" /><polyline points="4030.5 2974 4030 2973.5" stroke-width="1"  stroke-linecap="round" fill="none" layerid="4" net="" id="gge934" locked="0" /><polyline points="4039 2972 4039 2973.5" stroke-width="1"  stroke-linecap="round" fill="none" layerid="4" net="" id="gge935" locked="0" /><polyline points="4038.5 2974 4039 2973.5" stroke-width="1"  stroke-linecap="round" fill="none" layerid="4" net="" id="gge936" locked="0" /><polyline points="4030.5 2993 4030 2993.5" stroke-width="1"  stroke-linecap="round" fill="none" layerid="4" net="" id="gge937" locked="0" /><polyline points="4030.5 2993 4030.5 2974" stroke-width="1"  stroke-linecap="round" fill="none" layerid="4" net="" id="gge938" locked="0" /><polyline points="4038.5 2993 4039 2993.5" stroke-width="1"  stroke-linecap="round" fill="none" layerid="4" net="" id="gge939" locked="0" /><polyline points="4038.5 2993 4038.5 2974" stroke-width="1"  stroke-linecap="round" fill="none" layerid="4" net="" id="gge940" locked="0" /><polyline points="4030 2995 4030 2993.5" stroke-width="1"  stroke-linecap="round" fill="none" layerid="4" net="" id="gge941" locked="0" /><polyline points="4039 2995 4039 2993.5" stroke-width="1"  stroke-linecap="round" fill="none" layerid="4" net="" id="gge942" locked="0" /><polyline points="4038 2996 4031 2996" stroke-width="1"  stroke-linecap="round" fill="none" layerid="4" net="" id="gge943" locked="0" /><polyline points="4049.5 2921 4042.5 2921" stroke-width="1"  stroke-linecap="round" fill="none" layerid="4" net="" id="gge1227" locked="0" /><polyline points="4041.5 2922 4041.5 2923.5" stroke-width="1"  stroke-linecap="round" fill="none" layerid="4" net="" id="gge1228" locked="0" /><polyline points="4042 2924 4041.5 2923.5" stroke-width="1"  stroke-linecap="round" fill="none" layerid="4" net="" id="gge1229" locked="0" /><polyline points="4050.5 2922 4050.5 2923.5" stroke-width="1"  stroke-linecap="round" fill="none" layerid="4" net="" id="gge1230" locked="0" /><polyline points="4050 2924 4050.5 2923.5" stroke-width="1"  stroke-linecap="round" fill="none" layerid="4" net="" id="gge1231" locked="0" /><polyline points="4042 2943 4041.5 2943.5" stroke-width="1"  stroke-linecap="round" fill="none" layerid="4" net="" id="gge1232" locked="0" /><polyline points="4042 2943 4042 2924" stroke-width="1"  stroke-linecap="round" fill="none" layerid="4" net="" id="gge1233" locked="0" /><polyline points="4050 2943 4050.5 2943.5" stroke-width="1"  stroke-linecap="round" fill="none" layerid="4" net="" id="gge1234" locked="0" /><polyline points="4050 2943 4050 2924" stroke-width="1"  stroke-linecap="round" fill="none" layerid="4" net="" id="gge1235" locked="0" /><polyline points="4041.5 2945 4041.5 2943.5" stroke-width="1"  stroke-linecap="round" fill="none" layerid="4" net="" id="gge1236" locked="0" /><polyline points="4050.5 2945 4050.5 2943.5" stroke-width="1"  stroke-linecap="round" fill="none" layerid="4" net="" id="gge1237" locked="0" /><polyline points="4049.5 2946 4042.5 2946" stroke-width="1"  stroke-linecap="round" fill="none" layerid="4" net="" id="gge1238" locked="0" /><g c_partid="part_pcbtext" c_etype="" c_origin="4048,2989" c_rotation="270" c_mirror="1" id="gge799" locked="0" layerid="4" c_shapetype="group" ><path c_fontsize="4.5" c_fontfamily="" c_text="220" d="M 4051.52 2988.8 L 4051.72 2988.8 L 4052.13 2988.59 L 4052.34 2988.39 L 4052.54 2987.98 L 4052.54 2987.16 L 4052.34 2986.75 L 4052.13 2986.55 L 4051.72 2986.34 L 4051.31 2986.34 L 4050.9 2986.55 L 4050.29 2986.95 L 4048.25 2989 L 4048.25 2986.14 M 4051.52 2984.58 L 4051.72 2984.58 L 4052.13 2984.38 L 4052.34 2984.17 L 4052.54 2983.76 L 4052.54 2982.95 L 4052.34 2982.54 L 4052.13 2982.33 L 4051.72 2982.13 L 4051.31 2982.13 L 4050.9 2982.33 L 4050.29 2982.74 L 4048.25 2984.79 L 4048.25 2981.92 M 4052.54 2979.35 L 4052.34 2979.96 L 4051.72 2980.37 L 4050.7 2980.57 L 4050.09 2980.57 L 4049.06 2980.37 L 4048.45 2979.96 L 4048.25 2979.35 L 4048.25 2978.94 L 4048.45 2978.32 L 4049.06 2977.91 L 4050.09 2977.71 L 4050.7 2977.71 L 4051.72 2977.91 L 4052.34 2978.32 L 4052.54 2978.94 L 4052.54 2979.35" fill="none"  stroke-width="0.6"  /></g><g c_partid="part_pcbtext" c_etype="" c_origin="4067.5,2989" c_rotation="270" c_mirror="1" id="gge838" locked="0" layerid="4" c_shapetype="group" ><path c_fontsize="4.5" c_fontfamily="" c_text="220" d="M 4071.02 2988.8 L 4071.22 2988.8 L 4071.63 2988.59 L 4071.84 2988.39 L 4072.04 2987.98 L 4072.04 2987.16 L 4071.84 2986.75 L 4071.63 2986.55 L 4071.22 2986.34 L 4070.81 2986.34 L 4070.4 2986.55 L 4069.79 2986.95 L 4067.75 2989 L 4067.75 2986.14 M 4071.02 2984.58 L 4071.22 2984.58 L 4071.63 2984.38 L 4071.84 2984.17 L 4072.04 2983.76 L 4072.04 2982.95 L 4071.84 2982.54 L 4071.63 2982.33 L 4071.22 2982.13 L 4070.81 2982.13 L 4070.4 2982.33 L 4069.79 2982.74 L 4067.75 2984.79 L 4067.75 2981.92 M 4072.04 2979.35 L 4071.84 2979.96 L 4071.22 2980.37 L 4070.2 2980.57 L 4069.59 2980.57 L 4068.56 2980.37 L 4067.95 2979.96 L 4067.75 2979.35 L 4067.75 2978.94 L 4067.95 2978.32 L 4068.56 2977.91 L 4069.59 2977.71 L 4070.2 2977.71 L 4071.22 2977.91 L 4071.84 2978.32 L 4072.04 2978.94 L 4072.04 2979.35" fill="none"  stroke-width="0.6"  /></g><g c_partid="part_pcbtext" c_etype="" c_origin="4082,2990.5" c_rotation="270" c_mirror="1" id="gge877" locked="0" layerid="4" c_shapetype="group" ><path c_fontsize="4.5" c_fontfamily="" c_text="4.7K" d="M 4086.54 2988.45 L 4083.68 2990.5 L 4083.68 2987.43 M 4086.54 2988.45 L 4082.25 2988.45 M 4083.27 2985.88 L 4083.06 2986.08 L 4082.86 2985.88 L 4083.06 2985.67 L 4083.27 2985.88 M 4086.54 2981.46 L 4082.25 2983.5 M 4086.54 2984.32 L 4086.54 2981.46 M 4086.54 2980.11 L 4082.25 2980.11 M 4086.54 2977.25 L 4083.68 2980.11 M 4084.7 2979.09 L 4082.25 2977.25" fill="none"  stroke-width="0.6"  /></g><g c_partid="part_pcbtext" c_etype="" c_origin="4032,2989" c_rotation="270" c_mirror="1" id="gge963" locked="0" layerid="4" c_shapetype="group" ><path c_fontsize="4.5" c_fontfamily="" c_text="10K" d="M 4035.7227 2989 L 4035.9273 2988.5909 L 4036.5409 2987.9773 L 4032.2455 2987.9773 M 4036.5409 2985.4 L 4036.3364 2986.0136 L 4035.7227 2986.4227 L 4034.7 2986.6273 L 4034.0864 2986.6273 L 4033.0636 2986.4227 L 4032.45 2986.0136 L 4032.2455 2985.4 L 4032.2455 2984.9909 L 4032.45 2984.3773 L 4033.0636 2983.9682 L 4034.0864 2983.7636 L 4034.7 2983.7636 L 4035.7227 2983.9682 L 4036.3364 2984.3773 L 4036.5409 2984.9909 L 4036.5409 2985.4 M 4036.5409 2982.4136 L 4032.2455 2982.4136 M 4036.5409 2979.55 L 4033.6773 2982.4136 M 4034.7 2981.3909 L 4032.2455 2979.55" fill="none"  stroke-width="0.6"  /></g><g c_partid="part_pcbtext" c_etype="" c_origin="4043.5,2939" c_rotation="270" c_mirror="1" id="gge1258" locked="0" layerid="4" c_shapetype="group" ><path c_fontsize="4.5" c_fontfamily="" c_text="220" d="M 4047.02 2938.8 L 4047.22 2938.8 L 4047.63 2938.59 L 4047.84 2938.39 L 4048.04 2937.98 L 4048.04 2937.16 L 4047.84 2936.75 L 4047.63 2936.55 L 4047.22 2936.34 L 4046.81 2936.34 L 4046.4 2936.55 L 4045.79 2936.95 L 4043.75 2939 L 4043.75 2936.14 M 4047.02 2934.58 L 4047.22 2934.58 L 4047.63 2934.38 L 4047.84 2934.17 L 4048.04 2933.76 L 4048.04 2932.95 L 4047.84 2932.54 L 4047.63 2932.33 L 4047.22 2932.13 L 4046.81 2932.13 L 4046.4 2932.33 L 4045.79 2932.74 L 4043.75 2934.79 L 4043.75 2931.92 M 4048.04 2929.35 L 4047.84 2929.96 L 4047.22 2930.37 L 4046.2 2930.57 L 4045.59 2930.57 L 4044.56 2930.37 L 4043.95 2929.96 L 4043.75 2929.35 L 4043.75 2928.94 L 4043.95 2928.32 L 4044.56 2927.91 L 4045.59 2927.71 L 4046.2 2927.71 L 4047.22 2927.91 L 4047.84 2928.32 L 4048.04 2928.94 L 4048.04 2929.35" fill="none"  stroke-width="0.6"  /></g><g c_partid="part_pcbtext" c_etype="" c_origin="4176.17,3068.85" c_rotation="0" c_mirror="1" id="gge587" locked="0" layerid="4" c_shapetype="group" display="none"><path c_fontsize="4.5" c_fontfamily="" c_text="DIP-8_L9.8-W6.6-P2.54-LS7.6-BL" d="M 4176.1699 3064.3101 L 4176.1699 3068.6001 M 4176.1699 3064.3101 L 4174.7399 3064.3101 L 4174.1199 3064.5101 L 4173.7199 3064.9201 L 4173.5099 3065.3301 L 4173.3099 3065.9501 L 4173.3099 3066.9701 L 4173.5099 3067.5801 L 4173.7199 3067.9901 L 4174.1199 3068.4001 L 4174.7399 3068.6001 L 4176.1699 3068.6001 M 4171.9599 3064.3101 L 4171.9599 3068.6001 M 4170.6099 3064.3101 L 4170.6099 3068.6001 M 4170.6099 3064.3101 L 4168.7699 3064.3101 L 4168.1499 3064.5101 L 4167.9499 3064.7201 L 4167.7399 3065.1301 L 4167.7399 3065.7401 L 4167.9499 3066.1501 L 4168.1499 3066.3501 L 4168.7699 3066.5601 L 4170.6099 3066.5601 M 4166.3899 3066.7601 L 4162.7099 3066.7601 M 4160.3399 3064.3101 L 4160.9499 3064.5101 L 4161.1599 3064.9201 L 4161.1599 3065.3301 L 4160.9499 3065.7401 L 4160.5399 3065.9501 L 4159.7199 3066.1501 L 4159.1099 3066.3501 L 4158.6999 3066.7601 L 4158.4999 3067.1701 L 4158.4999 3067.7901 L 4158.6999 3068.2001 L 4158.9099 3068.4001 L 4159.5199 3068.6001 L 4160.3399 3068.6001 L 4160.9499 3068.4001 L 4161.1599 3068.2001 L 4161.3599 3067.7901 L 4161.3599 3067.1701 L 4161.1599 3066.7601 L 4160.7499 3066.3501 L 4160.1299 3066.1501 L 4159.3199 3065.9501 L 4158.9099 3065.7401 L 4158.6999 3065.3301 L 4158.6999 3064.9201 L 4158.9099 3064.5101 L 4159.5199 3064.3101 L 4160.3399 3064.3101 M 4157.1499 3070.0401 L 4153.4699 3070.0401 M 4152.1199 3064.3101 L 4152.1199 3068.6001 M 4152.1199 3068.6001 L 4149.6599 3068.6001 M 4145.6499 3065.7401 L 4145.8599 3066.3501 L 4146.2699 3066.7601 L 4146.8799 3066.9701 L 4147.0799 3066.9701 L 4147.6999 3066.7601 L 4148.1099 3066.3501 L 4148.3099 3065.7401 L 4148.3099 3065.5401 L 4148.1099 3064.9201 L 4147.6999 3064.5101 L 4147.0799 3064.3101 L 4146.8799 3064.3101 L 4146.2699 3064.5101 L 4145.8599 3064.9201 L 4145.6499 3065.7401 L 4145.6499 3066.7601 L 4145.8599 3067.7901 L 4146.2699 3068.4001 L 4146.8799 3068.6001 L 4147.2899 3068.6001 L 4147.8999 3068.4001 L 4148.1099 3067.9901 M 4144.0999 3067.5801 L 4144.2999 3067.7901 L 4144.0999 3067.9901 L 4143.8899 3067.7901 L 4144.0999 3067.5801 M 4141.5199 3064.3101 L 4142.1299 3064.5101 L 4142.3399 3064.9201 L 4142.3399 3065.3301 L 4142.1299 3065.7401 L 4141.7199 3065.9501 L 4140.9099 3066.1501 L 4140.2899 3066.3501 L 4139.8799 3066.7601 L 4139.6799 3067.1701 L 4139.6799 3067.7901 L 4139.8799 3068.2001 L 4140.0899 3068.4001 L 4140.6999 3068.6001 L 4141.5199 3068.6001 L 4142.1299 3068.4001 L 4142.3399 3068.2001 L 4142.5399 3067.7901 L 4142.5399 3067.1701 L 4142.3399 3066.7601 L 4141.9299 3066.3501 L 4141.3199 3066.1501 L 4140.4999 3065.9501 L 4140.0899 3065.7401 L 4139.8799 3065.3301 L 4139.8799 3064.9201 L 4140.0899 3064.5101 L 4140.6999 3064.3101 L 4141.5199 3064.3101 M 4138.3299 3066.7601 L 4134.6499 3066.7601 M 4133.2999 3064.3101 L 4132.2699 3068.6001 M 4131.2499 3064.3101 L 4132.2699 3068.6001 M 4131.2499 3064.3101 L 4130.2299 3068.6001 M 4129.2099 3064.3101 L 4130.2299 3068.6001 M 4125.3999 3064.9201 L 4125.6099 3064.5101 L 4126.2199 3064.3101 L 4126.6299 3064.3101 L 4127.2399 3064.5101 L 4127.6499 3065.1301 L 4127.8599 3066.1501 L 4127.8599 3067.1701 L 4127.6499 3067.9901 L 4127.2399 3068.4001 L 4126.6299 3068.6001 L 4126.4199 3068.6001 L 4125.8099 3068.4001 L 4125.3999 3067.9901 L 4125.1999 3067.3801 L 4125.1999 3067.1701 L 4125.3999 3066.5601 L 4125.8099 3066.1501 L 4126.4199 3065.9501 L 4126.6299 3065.9501 L 4127.2399 3066.1501 L 4127.6499 3066.5601 L 4127.8599 3067.1701 M 4123.6399 3067.5801 L 4123.8499 3067.7901 L 4123.6399 3067.9901 L 4123.4399 3067.7901 L 4123.6399 3067.5801 M 4119.6299 3064.9201 L 4119.8399 3064.5101 L 4120.4499 3064.3101 L 4120.8599 3064.3101 L 4121.4699 3064.5101 L 4121.8799 3065.1301 L 4122.0899 3066.1501 L 4122.0899 3067.1701 L 4121.8799 3067.9901 L 4121.4699 3068.4001 L 4120.8599 3068.6001 L 4120.6599 3068.6001 L 4120.0399 3068.4001 L 4119.6299 3067.9901 L 4119.4299 3067.3801 L 4119.4299 3067.1701 L 4119.6299 3066.5601 L 4120.0399 3066.1501 L 4120.6599 3065.9501 L 4120.8599 3065.9501 L 4121.4699 3066.1501 L 4121.8799 3066.5601 L 4122.0899 3067.1701 M 4118.0799 3066.7601 L 4114.3999 3066.7601 M 4113.0499 3064.3101 L 4113.0499 3068.6001 M 4113.0499 3064.3101 L 4111.2099 3064.3101 L 4110.5899 3064.5101 L 4110.3899 3064.7201 L 4110.1799 3065.1301 L 4110.1799 3065.7401 L 4110.3899 3066.1501 L 4110.5899 3066.3501 L 4111.2099 3066.5601 L 4113.0499 3066.5601 M 4108.6299 3065.3301 L 4108.6299 3065.1301 L 4108.4199 3064.7201 L 4108.2199 3064.5101 L 4107.8099 3064.3101 L 4106.9899 3064.3101 L 4106.5799 3064.5101 L 4106.3799 3064.7201 L 4106.1699 3065.1301 L 4106.1699 3065.5401 L 4106.3799 3065.9501 L 4106.7899 3066.5601 L 4108.8299 3068.6001 L 4105.9699 3068.6001 M 4104.4199 3067.5801 L 4104.6199 3067.7901 L 4104.4199 3067.9901 L 4104.2099 3067.7901 L 4104.4199 3067.5801 M 4100.4099 3064.3101 L 4102.4499 3064.3101 L 4102.6599 3066.1501 L 4102.4499 3065.9501 L 4101.8399 3065.7401 L 4101.2199 3065.7401 L 4100.6099 3065.9501 L 4100.1999 3066.3501 L 4099.9999 3066.9701 L 4099.9999 3067.3801 L 4100.1999 3067.9901 L 4100.6099 3068.4001 L 4101.2199 3068.6001 L 4101.8399 3068.6001 L 4102.4499 3068.4001 L 4102.6599 3068.2001 L 4102.8599 3067.7901 M 4096.5999 3064.3101 L 4098.6499 3067.1701 L 4095.5799 3067.1701 M 4096.5999 3064.3101 L 4096.5999 3068.6001 M 4094.2299 3066.7601 L 4090.5499 3066.7601 M 4089.1999 3064.3101 L 4089.1999 3068.6001 M 4089.1999 3068.6001 L 4086.7399 3068.6001 M 4082.5299 3064.9201 L 4082.9399 3064.5101 L 4083.5499 3064.3101 L 4084.3699 3064.3101 L 4084.9799 3064.5101 L 4085.3899 3064.9201 L 4085.3899 3065.3301 L 4085.1899 3065.7401 L 4084.9799 3065.9501 L 4084.5699 3066.1501 L 4083.3499 3066.5601 L 4082.9399 3066.7601 L 4082.7299 3066.9701 L 4082.5299 3067.3801 L 4082.5299 3067.9901 L 4082.9399 3068.4001 L 4083.5499 3068.6001 L 4084.3699 3068.6001 L 4084.9799 3068.4001 L 4085.3899 3067.9901 M 4078.3199 3064.3101 L 4080.3599 3068.6001 M 4081.1799 3064.3101 L 4078.3199 3064.3101 M 4076.7599 3067.5801 L 4076.9699 3067.7901 L 4076.7599 3067.9901 L 4076.5599 3067.7901 L 4076.7599 3067.5801 M 4072.7499 3064.9201 L 4072.9599 3064.5101 L 4073.5699 3064.3101 L 4073.9799 3064.3101 L 4074.5899 3064.5101 L 4074.9999 3065.1301 L 4075.2099 3066.1501 L 4075.2099 3067.1701 L 4074.9999 3067.9901 L 4074.5899 3068.4001 L 4073.9799 3068.6001 L 4073.7699 3068.6001 L 4073.1599 3068.4001 L 4072.7499 3067.9901 L 4072.5499 3067.3801 L 4072.5499 3067.1701 L 4072.7499 3066.5601 L 4073.1599 3066.1501 L 4073.7699 3065.9501 L 4073.9799 3065.9501 L 4074.5899 3066.1501 L 4074.9999 3066.5601 L 4075.2099 3067.1701 M 4071.1999 3066.7601 L 4067.5199 3066.7601 M 4066.1699 3064.3101 L 4066.1699 3068.6001 M 4066.1699 3064.3101 L 4064.3199 3064.3101 L 4063.7099 3064.5101 L 4063.5099 3064.7201 L 4063.2999 3065.1301 L 4063.2999 3065.5401 L 4063.5099 3065.9501 L 4063.7099 3066.1501 L 4064.3199 3066.3501 M 4066.1699 3066.3501 L 4064.3199 3066.3501 L 4063.7099 3066.5601 L 4063.5099 3066.7601 L 4063.2999 3067.1701 L 4063.2999 3067.7901 L 4063.5099 3068.2001 L 4063.7099 3068.4001 L 4064.3199 3068.6001 L 4066.1699 3068.6001 M 4061.9499 3064.3101 L 4061.9499 3068.6001 M 4061.9499 3068.6001 L 4059.4999 3068.6001" fill="none"  stroke-width="0.6" c_note="note_name" /></g><g c_partid="part_pcbtext" c_etype="" c_origin="4050,3058.5" c_rotation="180" c_mirror="1" id="gge589" locked="0" layerid="4" c_shapetype="group" ><path c_fontsize="4.5" c_fontfamily="" c_text="6N138" d="M 4052.4545 3062.4273 L 4052.25 3062.8364 L 4051.6364 3063.0409 L 4051.2273 3063.0409 L 4050.6136 3062.8364 L 4050.2045 3062.2227 L 4050 3061.2 L 4050 3060.1773 L 4050.2045 3059.3591 L 4050.6136 3058.95 L 4051.2273 3058.7455 L 4051.4318 3058.7455 L 4052.0455 3058.95 L 4052.4545 3059.3591 L 4052.6591 3059.9727 L 4052.6591 3060.1773 L 4052.4545 3060.7909 L 4052.0455 3061.2 L 4051.4318 3061.4045 L 4051.2273 3061.4045 L 4050.6136 3061.2 L 4050.2045 3060.7909 L 4050 3060.1773 M 4054.0091 3063.0409 L 4054.0091 3058.7455 M 4054.0091 3063.0409 L 4056.8727 3058.7455 M 4056.8727 3063.0409 L 4056.8727 3058.7455 M 4058.2227 3062.2227 L 4058.6318 3062.4273 L 4059.2455 3063.0409 L 4059.2455 3058.7455 M 4061.0045 3063.0409 L 4063.2545 3063.0409 L 4062.0273 3061.4045 L 4062.6409 3061.4045 L 4063.05 3061.2 L 4063.2545 3060.9955 L 4063.4591 3060.3818 L 4063.4591 3059.9727 L 4063.2545 3059.3591 L 4062.8455 3058.95 L 4062.2318 3058.7455 L 4061.6182 3058.7455 L 4061.0045 3058.95 L 4060.8 3059.1545 L 4060.5955 3059.5636 M 4065.8318 3063.0409 L 4065.2182 3062.8364 L 4065.0136 3062.4273 L 4065.0136 3062.0182 L 4065.2182 3061.6091 L 4065.6273 3061.4045 L 4066.4455 3061.2 L 4067.0591 3060.9955 L 4067.4682 3060.5864 L 4067.6727 3060.1773 L 4067.6727 3059.5636 L 4067.4682 3059.1545 L 4067.2636 3058.95 L 4066.65 3058.7455 L 4065.8318 3058.7455 L 4065.2182 3058.95 L 4065.0136 3059.1545 L 4064.8091 3059.5636 L 4064.8091 3060.1773 L 4065.0136 3060.5864 L 4065.4227 3060.9955 L 4066.0364 3061.2 L 4066.8545 3061.4045 L 4067.2636 3061.6091 L 4067.4682 3062.0182 L 4067.4682 3062.4273 L 4067.2636 3062.8364 L 4066.65 3063.0409 L 4065.8318 3063.0409" fill="none"  stroke-width="0.6" c_note="note_pre" /></g><g c_partid="part_pcbtext" c_etype="" c_origin="4060.001,3002.5" c_rotation="0" c_mirror="1" id="gge704" locked="0" layerid="4" c_shapetype="group" display="none"><path c_fontsize="4.5" c_fontfamily="" c_text="DO-1N4148" d="M 4060.0003 2997.96 L 4060.0003 3002.25 M 4060.0003 2997.96 L 4058.5703 2997.96 L 4057.9503 2998.16 L 4057.5503 2998.57 L 4057.3403 2998.98 L 4057.1403 2999.6 L 4057.1403 3000.62 L 4057.3403 3001.23 L 4057.5503 3001.64 L 4057.9503 3002.05 L 4058.5703 3002.25 L 4060.0003 3002.25 M 4054.5603 2997.96 L 4054.9703 2998.16 L 4055.3803 2998.57 L 4055.5803 2998.98 L 4055.7903 2999.6 L 4055.7903 3000.62 L 4055.5803 3001.23 L 4055.3803 3001.64 L 4054.9703 3002.05 L 4054.5603 3002.25 L 4053.7403 3002.25 L 4053.3303 3002.05 L 4052.9203 3001.64 L 4052.7203 3001.23 L 4052.5103 3000.62 L 4052.5103 2999.6 L 4052.7203 2998.98 L 4052.9203 2998.57 L 4053.3303 2998.16 L 4053.7403 2997.96 L 4054.5603 2997.96 M 4051.1603 3000.41 L 4047.4803 3000.41 M 4046.1303 2998.78 L 4045.7203 2998.57 L 4045.1103 2997.96 L 4045.1103 3002.25 M 4043.7603 2997.96 L 4043.7603 3002.25 M 4043.7603 2997.96 L 4040.9003 3002.25 M 4040.9003 2997.96 L 4040.9003 3002.25 M 4037.5003 2997.96 L 4039.5503 3000.82 L 4036.4803 3000.82 M 4037.5003 2997.96 L 4037.5003 3002.25 M 4035.1303 2998.78 L 4034.7203 2998.57 L 4034.1003 2997.96 L 4034.1003 3002.25 M 4030.7103 2997.96 L 4032.7503 3000.82 L 4029.6903 3000.82 M 4030.7103 2997.96 L 4030.7103 3002.25 M 4027.3103 2997.96 L 4027.9303 2998.16 L 4028.1303 2998.57 L 4028.1303 2998.98 L 4027.9303 2999.39 L 4027.5203 2999.6 L 4026.7003 2999.8 L 4026.0903 3000 L 4025.6803 3000.41 L 4025.4703 3000.82 L 4025.4703 3001.44 L 4025.6803 3001.85 L 4025.8803 3002.05 L 4026.5003 3002.25 L 4027.3103 3002.25 L 4027.9303 3002.05 L 4028.1303 3001.85 L 4028.3403 3001.44 L 4028.3403 3000.82 L 4028.1303 3000.41 L 4027.7203 3000 L 4027.1103 2999.8 L 4026.2903 2999.6 L 4025.8803 2999.39 L 4025.6803 2998.98 L 4025.6803 2998.57 L 4025.8803 2998.16 L 4026.5003 2997.96 L 4027.3103 2997.96" fill="none"  stroke-width="0.6" c_note="note_name" /></g><g c_partid="part_pcbtext" c_etype="" c_origin="4051.5,3004.5" c_rotation="180" c_mirror="1" id="gge706" locked="0" layerid="4" c_shapetype="group" ><path c_fontsize="4.5" c_fontfamily="" c_text="DIODE1" d="M 4051.5 3009.04 L 4051.5 3004.75 M 4051.5 3009.04 L 4052.93 3009.04 L 4053.55 3008.84 L 4053.95 3008.43 L 4054.16 3008.02 L 4054.36 3007.4 L 4054.36 3006.38 L 4054.16 3005.77 L 4053.95 3005.36 L 4053.55 3004.95 L 4052.93 3004.75 L 4051.5 3004.75 M 4055.71 3009.04 L 4055.71 3004.75 M 4058.29 3009.04 L 4057.88 3008.84 L 4057.47 3008.43 L 4057.27 3008.02 L 4057.06 3007.4 L 4057.06 3006.38 L 4057.27 3005.77 L 4057.47 3005.36 L 4057.88 3004.95 L 4058.29 3004.75 L 4059.11 3004.75 L 4059.52 3004.95 L 4059.93 3005.36 L 4060.13 3005.77 L 4060.34 3006.38 L 4060.34 3007.4 L 4060.13 3008.02 L 4059.93 3008.43 L 4059.52 3008.84 L 4059.11 3009.04 L 4058.29 3009.04 M 4061.69 3009.04 L 4061.69 3004.75 M 4061.69 3009.04 L 4063.12 3009.04 L 4063.73 3008.84 L 4064.14 3008.43 L 4064.35 3008.02 L 4064.55 3007.4 L 4064.55 3006.38 L 4064.35 3005.77 L 4064.14 3005.36 L 4063.73 3004.95 L 4063.12 3004.75 L 4061.69 3004.75 M 4065.9 3009.04 L 4065.9 3004.75 M 4065.9 3009.04 L 4068.56 3009.04 M 4065.9 3007 L 4067.54 3007 M 4065.9 3004.75 L 4068.56 3004.75 M 4069.91 3008.22 L 4070.32 3008.43 L 4070.93 3009.04 L 4070.93 3004.75" fill="none"  stroke-width="0.6" c_note="note_pre" /></g><g c_partid="part_pcbtext" c_etype="" c_origin="4033.71,3012.87" c_rotation="270" c_mirror="1" id="gge763" locked="0" layerid="4" c_shapetype="group" display="none"><path c_fontsize="4.5" c_fontfamily="" c_text="RTH025W" d="M 4038.25 3012.8701 L 4033.96 3012.8701 M 4038.25 3012.8701 L 4038.25 3011.0301 L 4038.05 3010.4201 L 4037.84 3010.2101 L 4037.43 3010.0101 L 4037.02 3010.0101 L 4036.61 3010.2101 L 4036.41 3010.4201 L 4036.21 3011.0301 L 4036.21 3012.8701 M 4036.21 3011.4401 L 4033.96 3010.0101 M 4038.25 3007.2201 L 4033.96 3007.2201 M 4038.25 3008.6601 L 4038.25 3005.7901 M 4038.25 3004.4401 L 4033.96 3004.4401 M 4038.25 3001.5801 L 4033.96 3001.5801 M 4036.21 3004.4401 L 4036.21 3001.5801 M 4038.25 2999.0001 L 4038.05 2999.6201 L 4037.43 3000.0201 L 4036.41 3000.2301 L 4035.8 3000.2301 L 4034.77 3000.0201 L 4034.16 2999.6201 L 4033.96 2999.0001 L 4033.96 2998.5901 L 4034.16 2997.9801 L 4034.77 2997.5701 L 4035.8 2997.3701 L 4036.41 2997.3701 L 4037.43 2997.5701 L 4038.05 2997.9801 L 4038.25 2998.5901 L 4038.25 2999.0001 M 4037.23 2995.8101 L 4037.43 2995.8101 L 4037.84 2995.6101 L 4038.05 2995.4001 L 4038.25 2994.9901 L 4038.25 2994.1701 L 4038.05 2993.7701 L 4037.84 2993.5601 L 4037.43 2993.3601 L 4037.02 2993.3601 L 4036.61 2993.5601 L 4036 2993.9701 L 4033.96 2996.0201 L 4033.96 2993.1501 M 4038.25 2989.3501 L 4038.25 2991.3901 L 4036.41 2991.6001 L 4036.61 2991.3901 L 4036.82 2990.7801 L 4036.82 2990.1701 L 4036.61 2989.5501 L 4036.21 2989.1401 L 4035.59 2988.9401 L 4035.18 2988.9401 L 4034.57 2989.1401 L 4034.16 2989.5501 L 4033.96 2990.1701 L 4033.96 2990.7801 L 4034.16 2991.3901 L 4034.36 2991.6001 L 4034.77 2991.8001 M 4038.25 2987.5901 L 4033.96 2986.5701 M 4038.25 2985.5401 L 4033.96 2986.5701 M 4038.25 2985.5401 L 4033.96 2984.5201 M 4038.25 2983.5001 L 4033.96 2984.5201" fill="none"  stroke-width="0.6" c_note="note_name" /></g><g c_partid="part_pcbtext" c_etype="" c_origin="4045.5,2977" c_rotation="90" c_mirror="1" id="gge765" locked="0" layerid="4" c_shapetype="group" display="none"><path c_fontsize="4.5" c_fontfamily="" c_text="220" d="M 4041.98 2977.2 L 4041.78 2977.2 L 4041.37 2977.41 L 4041.16 2977.61 L 4040.96 2978.02 L 4040.96 2978.84 L 4041.16 2979.25 L 4041.37 2979.45 L 4041.78 2979.66 L 4042.19 2979.66 L 4042.6 2979.45 L 4043.21 2979.05 L 4045.25 2977 L 4045.25 2979.86 M 4041.98 2981.42 L 4041.78 2981.42 L 4041.37 2981.62 L 4041.16 2981.83 L 4040.96 2982.24 L 4040.96 2983.05 L 4041.16 2983.46 L 4041.37 2983.67 L 4041.78 2983.87 L 4042.19 2983.87 L 4042.6 2983.67 L 4043.21 2983.26 L 4045.25 2981.21 L 4045.25 2984.08 M 4040.96 2986.65 L 4041.16 2986.04 L 4041.78 2985.63 L 4042.8 2985.43 L 4043.41 2985.43 L 4044.44 2985.63 L 4045.05 2986.04 L 4045.25 2986.65 L 4045.25 2987.06 L 4045.05 2987.68 L 4044.44 2988.09 L 4043.41 2988.29 L 4042.8 2988.29 L 4041.78 2988.09 L 4041.16 2987.68 L 4040.96 2987.06 L 4040.96 2986.65" fill="none"  stroke-width="0.6" c_note="note_pre" /></g><g c_partid="part_pcbtext" c_etype="" c_origin="4053.21,3012.37" c_rotation="270" c_mirror="1" id="gge804" locked="0" layerid="4" c_shapetype="group" display="none"><path c_fontsize="4.5" c_fontfamily="" c_text="RTH025W" d="M 4057.75 3012.3701 L 4053.46 3012.3701 M 4057.75 3012.3701 L 4057.75 3010.5301 L 4057.55 3009.9201 L 4057.34 3009.7101 L 4056.93 3009.5101 L 4056.52 3009.5101 L 4056.11 3009.7101 L 4055.91 3009.9201 L 4055.71 3010.5301 L 4055.71 3012.3701 M 4055.71 3010.9401 L 4053.46 3009.5101 M 4057.75 3006.7201 L 4053.46 3006.7201 M 4057.75 3008.1601 L 4057.75 3005.2901 M 4057.75 3003.9401 L 4053.46 3003.9401 M 4057.75 3001.0801 L 4053.46 3001.0801 M 4055.71 3003.9401 L 4055.71 3001.0801 M 4057.75 2998.5001 L 4057.55 2999.1201 L 4056.93 2999.5201 L 4055.91 2999.7301 L 4055.3 2999.7301 L 4054.27 2999.5201 L 4053.66 2999.1201 L 4053.46 2998.5001 L 4053.46 2998.0901 L 4053.66 2997.4801 L 4054.27 2997.0701 L 4055.3 2996.8701 L 4055.91 2996.8701 L 4056.93 2997.0701 L 4057.55 2997.4801 L 4057.75 2998.0901 L 4057.75 2998.5001 M 4056.73 2995.3101 L 4056.93 2995.3101 L 4057.34 2995.1101 L 4057.55 2994.9001 L 4057.75 2994.4901 L 4057.75 2993.6701 L 4057.55 2993.2701 L 4057.34 2993.0601 L 4056.93 2992.8601 L 4056.52 2992.8601 L 4056.11 2993.0601 L 4055.5 2993.4701 L 4053.46 2995.5201 L 4053.46 2992.6501 M 4057.75 2988.8501 L 4057.75 2990.8901 L 4055.91 2991.1001 L 4056.11 2990.8901 L 4056.32 2990.2801 L 4056.32 2989.6701 L 4056.11 2989.0501 L 4055.71 2988.6401 L 4055.09 2988.4401 L 4054.68 2988.4401 L 4054.07 2988.6401 L 4053.66 2989.0501 L 4053.46 2989.6701 L 4053.46 2990.2801 L 4053.66 2990.8901 L 4053.86 2991.1001 L 4054.27 2991.3001 M 4057.75 2987.0901 L 4053.46 2986.0701 M 4057.75 2985.0401 L 4053.46 2986.0701 M 4057.75 2985.0401 L 4053.46 2984.0201 M 4057.75 2983.0001 L 4053.46 2984.0201" fill="none"  stroke-width="0.6" c_note="note_name" /></g><g c_partid="part_pcbtext" c_etype="" c_origin="4065,2976.5" c_rotation="90" c_mirror="1" id="gge806" locked="0" layerid="4" c_shapetype="group" display="none"><path c_fontsize="4.5" c_fontfamily="" c_text="221" d="M 4061.48 2976.7 L 4061.28 2976.7 L 4060.87 2976.91 L 4060.66 2977.11 L 4060.46 2977.52 L 4060.46 2978.34 L 4060.66 2978.75 L 4060.87 2978.95 L 4061.28 2979.16 L 4061.69 2979.16 L 4062.1 2978.95 L 4062.71 2978.55 L 4064.75 2976.5 L 4064.75 2979.36 M 4061.48 2980.92 L 4061.28 2980.92 L 4060.87 2981.12 L 4060.66 2981.33 L 4060.46 2981.74 L 4060.46 2982.55 L 4060.66 2982.96 L 4060.87 2983.17 L 4061.28 2983.37 L 4061.69 2983.37 L 4062.1 2983.17 L 4062.71 2982.76 L 4064.75 2980.71 L 4064.75 2983.58 M 4061.28 2984.93 L 4061.07 2985.34 L 4060.46 2985.95 L 4064.75 2985.95" fill="none"  stroke-width="0.6" c_note="note_pre" /></g><g c_partid="part_pcbtext" c_etype="" c_origin="4067.71,3012.37" c_rotation="270" c_mirror="1" id="gge843" locked="0" layerid="4" c_shapetype="group" display="none"><path c_fontsize="4.5" c_fontfamily="" c_text="RTH025W" d="M 4072.25 3012.3701 L 4067.96 3012.3701 M 4072.25 3012.3701 L 4072.25 3010.5301 L 4072.05 3009.9201 L 4071.84 3009.7101 L 4071.43 3009.5101 L 4071.02 3009.5101 L 4070.61 3009.7101 L 4070.41 3009.9201 L 4070.21 3010.5301 L 4070.21 3012.3701 M 4070.21 3010.9401 L 4067.96 3009.5101 M 4072.25 3006.7201 L 4067.96 3006.7201 M 4072.25 3008.1601 L 4072.25 3005.2901 M 4072.25 3003.9401 L 4067.96 3003.9401 M 4072.25 3001.0801 L 4067.96 3001.0801 M 4070.21 3003.9401 L 4070.21 3001.0801 M 4072.25 2998.5001 L 4072.05 2999.1201 L 4071.43 2999.5201 L 4070.41 2999.7301 L 4069.8 2999.7301 L 4068.77 2999.5201 L 4068.16 2999.1201 L 4067.96 2998.5001 L 4067.96 2998.0901 L 4068.16 2997.4801 L 4068.77 2997.0701 L 4069.8 2996.8701 L 4070.41 2996.8701 L 4071.43 2997.0701 L 4072.05 2997.4801 L 4072.25 2998.0901 L 4072.25 2998.5001 M 4071.23 2995.3101 L 4071.43 2995.3101 L 4071.84 2995.1101 L 4072.05 2994.9001 L 4072.25 2994.4901 L 4072.25 2993.6701 L 4072.05 2993.2701 L 4071.84 2993.0601 L 4071.43 2992.8601 L 4071.02 2992.8601 L 4070.61 2993.0601 L 4070 2993.4701 L 4067.96 2995.5201 L 4067.96 2992.6501 M 4072.25 2988.8501 L 4072.25 2990.8901 L 4070.41 2991.1001 L 4070.61 2990.8901 L 4070.82 2990.2801 L 4070.82 2989.6701 L 4070.61 2989.0501 L 4070.21 2988.6401 L 4069.59 2988.4401 L 4069.18 2988.4401 L 4068.57 2988.6401 L 4068.16 2989.0501 L 4067.96 2989.6701 L 4067.96 2990.2801 L 4068.16 2990.8901 L 4068.36 2991.1001 L 4068.77 2991.3001 M 4072.25 2987.0901 L 4067.96 2986.0701 M 4072.25 2985.0401 L 4067.96 2986.0701 M 4072.25 2985.0401 L 4067.96 2984.0201 M 4072.25 2983.0001 L 4067.96 2984.0201" fill="none"  stroke-width="0.6" c_note="note_name" /></g><g c_partid="part_pcbtext" c_etype="" c_origin="4079.5,2976.5" c_rotation="90" c_mirror="1" id="gge845" locked="0" layerid="4" c_shapetype="group" display="none"><path c_fontsize="4.5" c_fontfamily="" c_text="222" d="M 4075.98 2976.7 L 4075.78 2976.7 L 4075.37 2976.91 L 4075.16 2977.11 L 4074.96 2977.52 L 4074.96 2978.34 L 4075.16 2978.75 L 4075.37 2978.95 L 4075.78 2979.16 L 4076.19 2979.16 L 4076.6 2978.95 L 4077.21 2978.55 L 4079.25 2976.5 L 4079.25 2979.36 M 4075.98 2980.92 L 4075.78 2980.92 L 4075.37 2981.12 L 4075.16 2981.33 L 4074.96 2981.74 L 4074.96 2982.55 L 4075.16 2982.96 L 4075.37 2983.17 L 4075.78 2983.37 L 4076.19 2983.37 L 4076.6 2983.17 L 4077.21 2982.76 L 4079.25 2980.71 L 4079.25 2983.58 M 4075.98 2985.13 L 4075.78 2985.13 L 4075.37 2985.34 L 4075.16 2985.54 L 4074.96 2985.95 L 4074.96 2986.77 L 4075.16 2987.18 L 4075.37 2987.38 L 4075.78 2987.59 L 4076.19 2987.59 L 4076.6 2987.38 L 4077.21 2986.97 L 4079.25 2984.93 L 4079.25 2987.79" fill="none"  stroke-width="0.6" c_note="note_pre" /></g><g c_partid="part_pcbtext" c_etype="" c_origin="4017.71,3012.87" c_rotation="270" c_mirror="1" id="gge927" locked="0" layerid="4" c_shapetype="group" display="none"><path c_fontsize="4.5" c_fontfamily="" c_text="RTH025W" d="M 4022.25 3012.8701 L 4017.96 3012.8701 M 4022.25 3012.8701 L 4022.25 3011.0301 L 4022.05 3010.4201 L 4021.84 3010.2101 L 4021.43 3010.0101 L 4021.02 3010.0101 L 4020.61 3010.2101 L 4020.41 3010.4201 L 4020.21 3011.0301 L 4020.21 3012.8701 M 4020.21 3011.4401 L 4017.96 3010.0101 M 4022.25 3007.2201 L 4017.96 3007.2201 M 4022.25 3008.6601 L 4022.25 3005.7901 M 4022.25 3004.4401 L 4017.96 3004.4401 M 4022.25 3001.5801 L 4017.96 3001.5801 M 4020.21 3004.4401 L 4020.21 3001.5801 M 4022.25 2999.0001 L 4022.05 2999.6201 L 4021.43 3000.0201 L 4020.41 3000.2301 L 4019.8 3000.2301 L 4018.77 3000.0201 L 4018.16 2999.6201 L 4017.96 2999.0001 L 4017.96 2998.5901 L 4018.16 2997.9801 L 4018.77 2997.5701 L 4019.8 2997.3701 L 4020.41 2997.3701 L 4021.43 2997.5701 L 4022.05 2997.9801 L 4022.25 2998.5901 L 4022.25 2999.0001 M 4021.23 2995.8101 L 4021.43 2995.8101 L 4021.84 2995.6101 L 4022.05 2995.4001 L 4022.25 2994.9901 L 4022.25 2994.1701 L 4022.05 2993.7701 L 4021.84 2993.5601 L 4021.43 2993.3601 L 4021.02 2993.3601 L 4020.61 2993.5601 L 4020 2993.9701 L 4017.96 2996.0201 L 4017.96 2993.1501 M 4022.25 2989.3501 L 4022.25 2991.3901 L 4020.41 2991.6001 L 4020.61 2991.3901 L 4020.82 2990.7801 L 4020.82 2990.1701 L 4020.61 2989.5501 L 4020.21 2989.1401 L 4019.59 2988.9401 L 4019.18 2988.9401 L 4018.57 2989.1401 L 4018.16 2989.5501 L 4017.96 2990.1701 L 4017.96 2990.7801 L 4018.16 2991.3901 L 4018.36 2991.6001 L 4018.77 2991.8001 M 4022.25 2987.5901 L 4017.96 2986.5701 M 4022.25 2985.5401 L 4017.96 2986.5701 M 4022.25 2985.5401 L 4017.96 2984.5201 M 4022.25 2983.5001 L 4017.96 2984.5201" fill="none"  stroke-width="0.6" c_note="note_name" /></g><g c_partid="part_pcbtext" c_etype="" c_origin="4029.5,2977" c_rotation="90" c_mirror="1" id="gge929" locked="0" layerid="4" c_shapetype="group" display="none"><path c_fontsize="4.5" c_fontfamily="" c_text="223" d="M 4025.9818 2977.2045 L 4025.7773 2977.2045 L 4025.3682 2977.4091 L 4025.1636 2977.6136 L 4024.9591 2978.0227 L 4024.9591 2978.8409 L 4025.1636 2979.25 L 4025.3682 2979.4545 L 4025.7773 2979.6591 L 4026.1864 2979.6591 L 4026.5955 2979.4545 L 4027.2091 2979.0455 L 4029.2545 2977 L 4029.2545 2979.8636 M 4025.9818 2981.4182 L 4025.7773 2981.4182 L 4025.3682 2981.6227 L 4025.1636 2981.8273 L 4024.9591 2982.2364 L 4024.9591 2983.0545 L 4025.1636 2983.4636 L 4025.3682 2983.6682 L 4025.7773 2983.8727 L 4026.1864 2983.8727 L 4026.5955 2983.6682 L 4027.2091 2983.2591 L 4029.2545 2981.2136 L 4029.2545 2984.0773 M 4024.9591 2985.8364 L 4024.9591 2988.0864 L 4026.5955 2986.8591 L 4026.5955 2987.4727 L 4026.8 2987.8818 L 4027.0045 2988.0864 L 4027.6182 2988.2909 L 4028.0273 2988.2909 L 4028.6409 2988.0864 L 4029.05 2987.6773 L 4029.2545 2987.0636 L 4029.2545 2986.45 L 4029.05 2985.8364 L 4028.8455 2985.6318 L 4028.4364 2985.4273" fill="none"  stroke-width="0.6" c_note="note_pre" /></g><g c_partid="part_pcbtext" c_etype="" c_origin="4029.21,2962.87" c_rotation="270" c_mirror="1" id="gge1223" locked="0" layerid="4" c_shapetype="group" display="none"><path c_fontsize="4.5" c_fontfamily="" c_text="RTH025W" d="M 4033.75 2962.8701 L 4029.46 2962.8701 M 4033.75 2962.8701 L 4033.75 2961.0301 L 4033.55 2960.4201 L 4033.34 2960.2101 L 4032.93 2960.0101 L 4032.52 2960.0101 L 4032.11 2960.2101 L 4031.91 2960.4201 L 4031.71 2961.0301 L 4031.71 2962.8701 M 4031.71 2961.4401 L 4029.46 2960.0101 M 4033.75 2957.2201 L 4029.46 2957.2201 M 4033.75 2958.6601 L 4033.75 2955.7901 M 4033.75 2954.4401 L 4029.46 2954.4401 M 4033.75 2951.5801 L 4029.46 2951.5801 M 4031.71 2954.4401 L 4031.71 2951.5801 M 4033.75 2949.0001 L 4033.55 2949.6201 L 4032.93 2950.0201 L 4031.91 2950.2301 L 4031.3 2950.2301 L 4030.27 2950.0201 L 4029.66 2949.6201 L 4029.46 2949.0001 L 4029.46 2948.5901 L 4029.66 2947.9801 L 4030.27 2947.5701 L 4031.3 2947.3701 L 4031.91 2947.3701 L 4032.93 2947.5701 L 4033.55 2947.9801 L 4033.75 2948.5901 L 4033.75 2949.0001 M 4032.73 2945.8101 L 4032.93 2945.8101 L 4033.34 2945.6101 L 4033.55 2945.4001 L 4033.75 2944.9901 L 4033.75 2944.1701 L 4033.55 2943.7701 L 4033.34 2943.5601 L 4032.93 2943.3601 L 4032.52 2943.3601 L 4032.11 2943.5601 L 4031.5 2943.9701 L 4029.46 2946.0201 L 4029.46 2943.1501 M 4033.75 2939.3501 L 4033.75 2941.3901 L 4031.91 2941.6001 L 4032.11 2941.3901 L 4032.32 2940.7801 L 4032.32 2940.1701 L 4032.11 2939.5501 L 4031.71 2939.1401 L 4031.09 2938.9401 L 4030.68 2938.9401 L 4030.07 2939.1401 L 4029.66 2939.5501 L 4029.46 2940.1701 L 4029.46 2940.7801 L 4029.66 2941.3901 L 4029.86 2941.6001 L 4030.27 2941.8001 M 4033.75 2937.5901 L 4029.46 2936.5701 M 4033.75 2935.5401 L 4029.46 2936.5701 M 4033.75 2935.5401 L 4029.46 2934.5201 M 4033.75 2933.5001 L 4029.46 2934.5201" fill="none"  stroke-width="0.6" c_note="note_name" /></g><g c_partid="part_pcbtext" c_etype="" c_origin="4041,2927" c_rotation="90" c_mirror="1" id="gge1225" locked="0" layerid="4" c_shapetype="group" display="none"><path c_fontsize="4.5" c_fontfamily="" c_text="224" d="M 4037.4818 2927.2045 L 4037.2773 2927.2045 L 4036.8682 2927.4091 L 4036.6636 2927.6136 L 4036.4591 2928.0227 L 4036.4591 2928.8409 L 4036.6636 2929.25 L 4036.8682 2929.4545 L 4037.2773 2929.6591 L 4037.6864 2929.6591 L 4038.0955 2929.4545 L 4038.7091 2929.0455 L 4040.7545 2927 L 4040.7545 2929.8636 M 4037.4818 2931.4182 L 4037.2773 2931.4182 L 4036.8682 2931.6227 L 4036.6636 2931.8273 L 4036.4591 2932.2364 L 4036.4591 2933.0545 L 4036.6636 2933.4636 L 4036.8682 2933.6682 L 4037.2773 2933.8727 L 4037.6864 2933.8727 L 4038.0955 2933.6682 L 4038.7091 2933.2591 L 4040.7545 2931.2136 L 4040.7545 2934.0773 M 4036.4591 2937.4727 L 4039.3227 2935.4273 L 4039.3227 2938.4955 M 4036.4591 2937.4727 L 4040.7545 2937.4727" fill="none"  stroke-width="0.6" c_note="note_pre" /></g><path d="M 4039.72 3036 A 2.5 2.5 0 0 1 4039.72 3041" locked="0"  fill="none" stroke-width="0.7874" c_helper_type="arc2" net="" layerid="4" id="gge592" /><path d="M 4039.39 3023.5 A 0.4921 0.4921 0 1 1 4039.39 3023.51" locked="0"  fill="none" stroke-width="0.98425" c_helper_type="arc2" net="" layerid="4" id="gge593" /><path d="M 4042.48 3032 A 1.1811 1.1811 0 1 1 4042.48 3032.02" locked="0"  fill="none" stroke-width="2.3622" c_helper_type="arc2" net="" layerid="4" id="gge594" /><path d="M 4047 2971 A 1 1 0 0 0 4046 2972" locked="0"  fill="none" stroke-width="1" c_helper_type="arc2" net="" layerid="4" id="gge779" /><path d="M 4054 2971 A 1 1 0 0 1 4055 2972" locked="0"  fill="none" stroke-width="1" c_helper_type="arc2" net="" layerid="4" id="gge780" /><path d="M 4055 2995 A 1 1 0 0 1 4054 2996" locked="0"  fill="none" stroke-width="1" c_helper_type="arc2" net="" layerid="4" id="gge781" /><path d="M 4046 2995 A 1 1 0 0 0 4047 2996" locked="0"  fill="none" stroke-width="1" c_helper_type="arc2" net="" layerid="4" id="gge782" /><path d="M 4066.5 2970.5 A 1 1 0 0 0 4065.5 2971.5" locked="0"  fill="none" stroke-width="1" c_helper_type="arc2" net="" layerid="4" id="gge820" /><path d="M 4073.5 2970.5 A 1 1 0 0 1 4074.5 2971.5" locked="0"  fill="none" stroke-width="1" c_helper_type="arc2" net="" layerid="4" id="gge821" /><path d="M 4074.5 2994.5 A 1 1 0 0 1 4073.5 2995.5" locked="0"  fill="none" stroke-width="1" c_helper_type="arc2" net="" layerid="4" id="gge822" /><path d="M 4065.5 2994.5 A 1 1 0 0 0 4066.5 2995.5" locked="0"  fill="none" stroke-width="1" c_helper_type="arc2" net="" layerid="4" id="gge823" /><path d="M 4081 2970.5 A 1 1 0 0 0 4080 2971.5" locked="0"  fill="none" stroke-width="1" c_helper_type="arc2" net="" layerid="4" id="gge859" /><path d="M 4088 2970.5 A 1 1 0 0 1 4089 2971.5" locked="0"  fill="none" stroke-width="1" c_helper_type="arc2" net="" layerid="4" id="gge860" /><path d="M 4089 2994.5 A 1 1 0 0 1 4088 2995.5" locked="0"  fill="none" stroke-width="1" c_helper_type="arc2" net="" layerid="4" id="gge861" /><path d="M 4080 2994.5 A 1 1 0 0 0 4081 2995.5" locked="0"  fill="none" stroke-width="1" c_helper_type="arc2" net="" layerid="4" id="gge862" /><path d="M 4031 2971 A 1 1 0 0 0 4030 2972" locked="0"  fill="none" stroke-width="1" c_helper_type="arc2" net="" layerid="4" id="gge944" /><path d="M 4038 2971 A 1 1 0 0 1 4039 2972" locked="0"  fill="none" stroke-width="1" c_helper_type="arc2" net="" layerid="4" id="gge945" /><path d="M 4039 2995 A 1 1 0 0 1 4038 2996" locked="0"  fill="none" stroke-width="1" c_helper_type="arc2" net="" layerid="4" id="gge946" /><path d="M 4030 2995 A 1 1 0 0 0 4031 2996" locked="0"  fill="none" stroke-width="1" c_helper_type="arc2" net="" layerid="4" id="gge947" /><path d="M 4042.5 2921 A 1 1 0 0 0 4041.5 2922" locked="0"  fill="none" stroke-width="1" c_helper_type="arc2" net="" layerid="4" id="gge1239" /><path d="M 4049.5 2921 A 1 1 0 0 1 4050.5 2922" locked="0"  fill="none" stroke-width="1" c_helper_type="arc2" net="" layerid="4" id="gge1240" /><path d="M 4050.5 2945 A 1 1 0 0 1 4049.5 2946" locked="0"  fill="none" stroke-width="1" c_helper_type="arc2" net="" layerid="4" id="gge1241" /><path d="M 4041.5 2945 A 1 1 0 0 0 4042.5 2946" locked="0"  fill="none" stroke-width="1" c_helper_type="arc2" net="" layerid="4" id="gge1242" /><g c_partid="part_pad" c_etype="pinpart" c_origin="4030,3013.5" layerid="11" number="1" net="" plated ="Y"  id="gge46" locked="0" c_rotation="270" c_width="7" c_height="7" title="" c_shape="RECT" pasteexpansion="0" solderexpansion="0.4"><polygon  c_etype="pad_shell" points="4033.5 3010 4033.5 3017 4026.5 3017 4026.5 3010" layerid="11" stroke-width="0" /><circle c_etype="pad_hole" cx="4030" cy="3013.5" r="1.8" layerid="11" stroke-width="0"/></g><g c_partid="part_pad" c_etype="pinpart" c_origin="4030,3023.5" layerid="11" number="2" net="" plated ="Y"  id="gge53" locked="0" c_rotation="270" c_width="7" c_height="7" title="" c_shape="ELLIPSE" pasteexpansion="0" solderexpansion="0.4"><ellipse c_etype="pad_shell" cx="4030" cy="3023.5" rx="3.5" ry="3.5" layerid="11" stroke-width="0"/><circle c_etype="pad_hole" cx="4030" cy="3023.5" r="1.8" layerid="11" stroke-width="0"/></g><g c_partid="part_pad" c_etype="pinpart" c_origin="4030,3033.5" layerid="11" number="3" net="" plated ="Y"  id="gge61" locked="0" c_rotation="270" c_width="7" c_height="7" title="" c_shape="ELLIPSE" pasteexpansion="0" solderexpansion="0.4"><ellipse c_etype="pad_shell" cx="4030" cy="3033.5" rx="3.5" ry="3.5" layerid="11" stroke-width="0"/><circle c_etype="pad_hole" cx="4030" cy="3033.5" r="1.8" layerid="11" stroke-width="0"/></g><g c_partid="part_pad" c_etype="pinpart" c_origin="4030,3043.5" layerid="11" number="4" net="" plated ="Y"  id="gge90" locked="0" c_rotation="270" c_width="7" c_height="7" title="" c_shape="ELLIPSE" pasteexpansion="0" solderexpansion="0.4"><ellipse c_etype="pad_shell" cx="4030" cy="3043.5" rx="3.5" ry="3.5" layerid="11" stroke-width="0"/><circle c_etype="pad_hole" cx="4030" cy="3043.5" r="1.8" layerid="11" stroke-width="0"/></g><g c_partid="part_pad" c_etype="pinpart" c_origin="4030,3053.5" layerid="11" number="5" net="" plated ="Y"  id="gge96" locked="0" c_rotation="270" c_width="7" c_height="7" title="" c_shape="ELLIPSE" pasteexpansion="0" solderexpansion="0.4"><ellipse c_etype="pad_shell" cx="4030" cy="3053.5" rx="3.5" ry="3.5" layerid="11" stroke-width="0"/><circle c_etype="pad_hole" cx="4030" cy="3053.5" r="1.8" layerid="11" stroke-width="0"/></g><g c_partid="part_pad" c_etype="pinpart" c_origin="4030,3063.5" layerid="11" number="6" net="" plated ="Y"  id="gge101" locked="0" c_rotation="270" c_width="7" c_height="7" title="" c_shape="ELLIPSE" pasteexpansion="0" solderexpansion="0.4"><ellipse c_etype="pad_shell" cx="4030" cy="3063.5" rx="3.5" ry="3.5" layerid="11" stroke-width="0"/><circle c_etype="pad_hole" cx="4030" cy="3063.5" r="1.8" layerid="11" stroke-width="0"/></g><g c_partid="part_pad" c_etype="pinpart" c_origin="4030,3073.5" layerid="11" number="7" net="" plated ="Y"  id="gge106" locked="0" c_rotation="270" c_width="7" c_height="7" title="" c_shape="ELLIPSE" pasteexpansion="0" solderexpansion="0.4"><ellipse c_etype="pad_shell" cx="4030" cy="3073.5" rx="3.5" ry="3.5" layerid="11" stroke-width="0"/><circle c_etype="pad_hole" cx="4030" cy="3073.5" r="1.8" layerid="11" stroke-width="0"/></g><g c_partid="part_pad" c_etype="pinpart" c_origin="4030,3083.5" layerid="11" number="8" net="" plated ="Y"  id="gge111" locked="0" c_rotation="270" c_width="7" c_height="7" title="" c_shape="ELLIPSE" pasteexpansion="0" solderexpansion="0.4"><ellipse c_etype="pad_shell" cx="4030" cy="3083.5" rx="3.5" ry="3.5" layerid="11" stroke-width="0"/><circle c_etype="pad_hole" cx="4030" cy="3083.5" r="1.8" layerid="11" stroke-width="0"/></g><g c_partid="part_pad" c_etype="pinpart" c_origin="4030,3093.5" layerid="11" number="9" net="" plated ="Y"  id="gge116" locked="0" c_rotation="270" c_width="7" c_height="7" title="" c_shape="ELLIPSE" pasteexpansion="0" solderexpansion="0.4"><ellipse c_etype="pad_shell" cx="4030" cy="3093.5" rx="3.5" ry="3.5" layerid="11" stroke-width="0"/><circle c_etype="pad_hole" cx="4030" cy="3093.5" r="1.8" layerid="11" stroke-width="0"/></g><g c_partid="part_pad" c_etype="pinpart" c_origin="4030,3103.5" layerid="11" number="10" net="" plated ="Y"  id="gge121" locked="0" c_rotation="270" c_width="7" c_height="7" title="" c_shape="ELLIPSE" pasteexpansion="0" solderexpansion="0.4"><ellipse c_etype="pad_shell" cx="4030" cy="3103.5" rx="3.5" ry="3.5" layerid="11" stroke-width="0"/><circle c_etype="pad_hole" cx="4030" cy="3103.5" r="1.8" layerid="11" stroke-width="0"/></g><g c_partid="part_pad" c_etype="pinpart" c_origin="4030,3113.5" layerid="11" number="11" net="" plated ="Y"  id="gge126" locked="0" c_rotation="270" c_width="7" c_height="7" title="" c_shape="ELLIPSE" pasteexpansion="0" solderexpansion="0.4"><ellipse c_etype="pad_shell" cx="4030" cy="3113.5" rx="3.5" ry="3.5" layerid="11" stroke-width="0"/><circle c_etype="pad_hole" cx="4030" cy="3113.5" r="1.8" layerid="11" stroke-width="0"/></g><g c_partid="part_pad" c_etype="pinpart" c_origin="4030,3123.5" layerid="11" number="12" net="" plated ="Y"  id="gge131" locked="0" c_rotation="270" c_width="7" c_height="7" title="" c_shape="ELLIPSE" pasteexpansion="0" solderexpansion="0.4"><ellipse c_etype="pad_shell" cx="4030" cy="3123.5" rx="3.5" ry="3.5" layerid="11" stroke-width="0"/><circle c_etype="pad_hole" cx="4030" cy="3123.5" r="1.8" layerid="11" stroke-width="0"/></g><g c_partid="part_pad" c_etype="pinpart" c_origin="4030,3133.5" layerid="11" number="13" net="" plated ="Y"  id="gge136" locked="0" c_rotation="270" c_width="7" c_height="7" title="" c_shape="ELLIPSE" pasteexpansion="0" solderexpansion="0.4"><ellipse c_etype="pad_shell" cx="4030" cy="3133.5" rx="3.5" ry="3.5" layerid="11" stroke-width="0"/><circle c_etype="pad_hole" cx="4030" cy="3133.5" r="1.8" layerid="11" stroke-width="0"/></g><g c_partid="part_pad" c_etype="pinpart" c_origin="4030,3143.5" layerid="11" number="14" net="" plated ="Y"  id="gge141" locked="0" c_rotation="270" c_width="7" c_height="7" title="" c_shape="ELLIPSE" pasteexpansion="0" solderexpansion="0.4"><ellipse c_etype="pad_shell" cx="4030" cy="3143.5" rx="3.5" ry="3.5" layerid="11" stroke-width="0"/><circle c_etype="pad_hole" cx="4030" cy="3143.5" r="1.8" layerid="11" stroke-width="0"/></g><g c_partid="part_pad" c_etype="pinpart" c_origin="4030,3153.5" layerid="11" number="15" net="" plated ="Y"  id="gge146" locked="0" c_rotation="270" c_width="7" c_height="7" title="" c_shape="ELLIPSE" pasteexpansion="0" solderexpansion="0.4"><ellipse c_etype="pad_shell" cx="4030" cy="3153.5" rx="3.5" ry="3.5" layerid="11" stroke-width="0"/><circle c_etype="pad_hole" cx="4030" cy="3153.5" r="1.8" layerid="11" stroke-width="0"/></g><g c_partid="part_pad" c_etype="pinpart" c_origin="4090,3013.5" layerid="11" number="30" net="" plated ="Y"  id="gge151" locked="0" c_rotation="270" c_width="7" c_height="7" title="" c_shape="ELLIPSE" pasteexpansion="0" solderexpansion="0.4"><ellipse c_etype="pad_shell" cx="4090" cy="3013.5" rx="3.5" ry="3.5" layerid="11" stroke-width="0"/><circle c_etype="pad_hole" cx="4090" cy="3013.5" r="1.8" layerid="11" stroke-width="0"/></g><g c_partid="part_pad" c_etype="pinpart" c_origin="4090,3023.5" layerid="11" number="29" net="" plated ="Y"  id="gge156" locked="0" c_rotation="270" c_width="7" c_height="7" title="" c_shape="ELLIPSE" pasteexpansion="0" solderexpansion="0.4"><ellipse c_etype="pad_shell" cx="4090" cy="3023.5" rx="3.5" ry="3.5" layerid="11" stroke-width="0"/><circle c_etype="pad_hole" cx="4090" cy="3023.5" r="1.8" layerid="11" stroke-width="0"/></g><g c_partid="part_pad" c_etype="pinpart" c_origin="4090,3033.5" layerid="11" number="28" net="" plated ="Y"  id="gge161" locked="0" c_rotation="270" c_width="7" c_height="7" title="" c_shape="ELLIPSE" pasteexpansion="0" solderexpansion="0.4"><ellipse c_etype="pad_shell" cx="4090" cy="3033.5" rx="3.5" ry="3.5" layerid="11" stroke-width="0"/><circle c_etype="pad_hole" cx="4090" cy="3033.5" r="1.8" layerid="11" stroke-width="0"/></g><g c_partid="part_pad" c_etype="pinpart" c_origin="4090,3043.5" layerid="11" number="27" net="" plated ="Y"  id="gge166" locked="0" c_rotation="270" c_width="7" c_height="7" title="" c_shape="ELLIPSE" pasteexpansion="0" solderexpansion="0.4"><ellipse c_etype="pad_shell" cx="4090" cy="3043.5" rx="3.5" ry="3.5" layerid="11" stroke-width="0"/><circle c_etype="pad_hole" cx="4090" cy="3043.5" r="1.8" layerid="11" stroke-width="0"/></g><g c_partid="part_pad" c_etype="pinpart" c_origin="4090,3053.5" layerid="11" number="26" net="" plated ="Y"  id="gge171" locked="0" c_rotation="270" c_width="7" c_height="7" title="" c_shape="ELLIPSE" pasteexpansion="0" solderexpansion="0.4"><ellipse c_etype="pad_shell" cx="4090" cy="3053.5" rx="3.5" ry="3.5" layerid="11" stroke-width="0"/><circle c_etype="pad_hole" cx="4090" cy="3053.5" r="1.8" layerid="11" stroke-width="0"/></g><g c_partid="part_pad" c_etype="pinpart" c_origin="4090,3063.5" layerid="11" number="25" net="" plated ="Y"  id="gge176" locked="0" c_rotation="270" c_width="7" c_height="7" title="" c_shape="ELLIPSE" pasteexpansion="0" solderexpansion="0.4"><ellipse c_etype="pad_shell" cx="4090" cy="3063.5" rx="3.5" ry="3.5" layerid="11" stroke-width="0"/><circle c_etype="pad_hole" cx="4090" cy="3063.5" r="1.8" layerid="11" stroke-width="0"/></g><g c_partid="part_pad" c_etype="pinpart" c_origin="4090,3073.5" layerid="11" number="24" net="" plated ="Y"  id="gge181" locked="0" c_rotation="270" c_width="7" c_height="7" title="" c_shape="ELLIPSE" pasteexpansion="0" solderexpansion="0.4"><ellipse c_etype="pad_shell" cx="4090" cy="3073.5" rx="3.5" ry="3.5" layerid="11" stroke-width="0"/><circle c_etype="pad_hole" cx="4090" cy="3073.5" r="1.8" layerid="11" stroke-width="0"/></g><g c_partid="part_pad" c_etype="pinpart" c_origin="4090,3083.5" layerid="11" number="23" net="" plated ="Y"  id="gge186" locked="0" c_rotation="270" c_width="7" c_height="7" title="" c_shape="ELLIPSE" pasteexpansion="0" solderexpansion="0.4"><ellipse c_etype="pad_shell" cx="4090" cy="3083.5" rx="3.5" ry="3.5" layerid="11" stroke-width="0"/><circle c_etype="pad_hole" cx="4090" cy="3083.5" r="1.8" layerid="11" stroke-width="0"/></g><g c_partid="part_pad" c_etype="pinpart" c_origin="4090,3093.5" layerid="11" number="22" net="" plated ="Y"  id="gge191" locked="0" c_rotation="270" c_width="7" c_height="7" title="" c_shape="ELLIPSE" pasteexpansion="0" solderexpansion="0.4"><ellipse c_etype="pad_shell" cx="4090" cy="3093.5" rx="3.5" ry="3.5" layerid="11" stroke-width="0"/><circle c_etype="pad_hole" cx="4090" cy="3093.5" r="1.8" layerid="11" stroke-width="0"/></g><g c_partid="part_pad" c_etype="pinpart" c_origin="4090,3103.5" layerid="11" number="21" net="" plated ="Y"  id="gge196" locked="0" c_rotation="270" c_width="7" c_height="7" title="" c_shape="ELLIPSE" pasteexpansion="0" solderexpansion="0.4"><ellipse c_etype="pad_shell" cx="4090" cy="3103.5" rx="3.5" ry="3.5" layerid="11" stroke-width="0"/><circle c_etype="pad_hole" cx="4090" cy="3103.5" r="1.8" layerid="11" stroke-width="0"/></g><g c_partid="part_pad" c_etype="pinpart" c_origin="4090,3113.5" layerid="11" number="20" net="" plated ="Y"  id="gge201" locked="0" c_rotation="270" c_width="7" c_height="7" title="" c_shape="ELLIPSE" pasteexpansion="0" solderexpansion="0.4"><ellipse c_etype="pad_shell" cx="4090" cy="3113.5" rx="3.5" ry="3.5" layerid="11" stroke-width="0"/><circle c_etype="pad_hole" cx="4090" cy="3113.5" r="1.8" layerid="11" stroke-width="0"/></g><g c_partid="part_pad" c_etype="pinpart" c_origin="4090,3123.5" layerid="11" number="19" net="" plated ="Y"  id="gge206" locked="0" c_rotation="270" c_width="7" c_height="7" title="" c_shape="ELLIPSE" pasteexpansion="0" solderexpansion="0.4"><ellipse c_etype="pad_shell" cx="4090" cy="3123.5" rx="3.5" ry="3.5" layerid="11" stroke-width="0"/><circle c_etype="pad_hole" cx="4090" cy="3123.5" r="1.8" layerid="11" stroke-width="0"/></g><g c_partid="part_pad" c_etype="pinpart" c_origin="4090,3133.5" layerid="11" number="18" net="" plated ="Y"  id="gge211" locked="0" c_rotation="270" c_width="7" c_height="7" title="" c_shape="ELLIPSE" pasteexpansion="0" solderexpansion="0.4"><ellipse c_etype="pad_shell" cx="4090" cy="3133.5" rx="3.5" ry="3.5" layerid="11" stroke-width="0"/><circle c_etype="pad_hole" cx="4090" cy="3133.5" r="1.8" layerid="11" stroke-width="0"/></g><g c_partid="part_pad" c_etype="pinpart" c_origin="4090,3143.5" layerid="11" number="17" net="" plated ="Y"  id="gge216" locked="0" c_rotation="270" c_width="7" c_height="7" title="" c_shape="ELLIPSE" pasteexpansion="0" solderexpansion="0.4"><ellipse c_etype="pad_shell" cx="4090" cy="3143.5" rx="3.5" ry="3.5" layerid="11" stroke-width="0"/><circle c_etype="pad_hole" cx="4090" cy="3143.5" r="1.8" layerid="11" stroke-width="0"/></g><g c_partid="part_pad" c_etype="pinpart" c_origin="4090,3153.5" layerid="11" number="16" net="" plated ="Y"  id="gge221" locked="0" c_rotation="270" c_width="7" c_height="7" title="" c_shape="ELLIPSE" pasteexpansion="0" solderexpansion="0.4"><ellipse c_etype="pad_shell" cx="4090" cy="3153.5" rx="3.5" ry="3.5" layerid="11" stroke-width="0"/><circle c_etype="pad_hole" cx="4090" cy="3153.5" r="1.8" layerid="11" stroke-width="0"/></g><g c_partid="part_pad" c_etype="pinpart" c_origin="4045,3023.5" layerid="11" number="1" net="" plated ="Y"  id="gge597" locked="0" c_rotation="90" c_width="5.9055" c_height="5.9055" title="" c_shape="RECT" pasteexpansion="0" solderexpansion="0.4"><polygon  c_etype="pad_shell" points="4042.0472 3020.5472 4042.0472 3026.4528 4047.9528 3026.4528 4047.9528 3020.5472" layerid="11" stroke-width="0" /><circle c_etype="pad_hole" cx="4045" cy="3023.5" r="1.7717" layerid="11" stroke-width="0"/></g><g c_partid="part_pad" c_etype="pinpart" c_origin="4055,3023.5" layerid="11" number="2" net="" plated ="Y"  id="gge602" locked="0" c_rotation="90" c_width="5.9055" c_height="5.9055" title="" c_shape="ELLIPSE" pasteexpansion="0" solderexpansion="0.4"><ellipse c_etype="pad_shell" cx="4055" cy="3023.5" rx="2.95275" ry="2.95275" layerid="11" stroke-width="0"/><circle c_etype="pad_hole" cx="4055" cy="3023.5" r="1.7717" layerid="11" stroke-width="0"/></g><g c_partid="part_pad" c_etype="pinpart" c_origin="4065,3023.5" layerid="11" number="3" net="" plated ="Y"  id="gge607" locked="0" c_rotation="90" c_width="5.9055" c_height="5.9055" title="" c_shape="ELLIPSE" pasteexpansion="0" solderexpansion="0.4"><ellipse c_etype="pad_shell" cx="4065" cy="3023.5" rx="2.95275" ry="2.95275" layerid="11" stroke-width="0"/><circle c_etype="pad_hole" cx="4065" cy="3023.5" r="1.7717" layerid="11" stroke-width="0"/></g><g c_partid="part_pad" c_etype="pinpart" c_origin="4075,3023.5" layerid="11" number="4" net="" plated ="Y"  id="gge612" locked="0" c_rotation="90" c_width="5.9055" c_height="5.9055" title="" c_shape="ELLIPSE" pasteexpansion="0" solderexpansion="0.4"><ellipse c_etype="pad_shell" cx="4075" cy="3023.5" rx="2.95275" ry="2.95275" layerid="11" stroke-width="0"/><circle c_etype="pad_hole" cx="4075" cy="3023.5" r="1.7717" layerid="11" stroke-width="0"/></g><g c_partid="part_pad" c_etype="pinpart" c_origin="4045,3053.5" layerid="11" number="8" net="" plated ="Y"  id="gge617" locked="0" c_rotation="90" c_width="5.9055" c_height="5.9055" title="" c_shape="ELLIPSE" pasteexpansion="0" solderexpansion="0.4"><ellipse c_etype="pad_shell" cx="4045" cy="3053.5" rx="2.95275" ry="2.95275" layerid="11" stroke-width="0"/><circle c_etype="pad_hole" cx="4045" cy="3053.5" r="1.7717" layerid="11" stroke-width="0"/></g><g c_partid="part_pad" c_etype="pinpart" c_origin="4055,3053.5" layerid="11" number="7" net="" plated ="Y"  id="gge622" locked="0" c_rotation="90" c_width="5.9055" c_height="5.9055" title="" c_shape="ELLIPSE" pasteexpansion="0" solderexpansion="0.4"><ellipse c_etype="pad_shell" cx="4055" cy="3053.5" rx="2.95275" ry="2.95275" layerid="11" stroke-width="0"/><circle c_etype="pad_hole" cx="4055" cy="3053.5" r="1.7717" layerid="11" stroke-width="0"/></g><g c_partid="part_pad" c_etype="pinpart" c_origin="4065,3053.5" layerid="11" number="6" net="" plated ="Y"  id="gge627" locked="0" c_rotation="90" c_width="5.9055" c_height="5.9055" title="" c_shape="ELLIPSE" pasteexpansion="0" solderexpansion="0.4"><ellipse c_etype="pad_shell" cx="4065" cy="3053.5" rx="2.95275" ry="2.95275" layerid="11" stroke-width="0"/><circle c_etype="pad_hole" cx="4065" cy="3053.5" r="1.7717" layerid="11" stroke-width="0"/></g><g c_partid="part_pad" c_etype="pinpart" c_origin="4075,3053.5" layerid="11" number="5" net="" plated ="Y"  id="gge632" locked="0" c_rotation="90" c_width="5.9055" c_height="5.9055" title="" c_shape="ELLIPSE" pasteexpansion="0" solderexpansion="0.4"><ellipse c_etype="pad_shell" cx="4075" cy="3053.5" rx="2.95275" ry="2.95275" layerid="11" stroke-width="0"/><circle c_etype="pad_hole" cx="4075" cy="3053.5" r="1.7717" layerid="11" stroke-width="0"/></g><g c_partid="part_pad" c_etype="pinpart" c_origin="4075,3013.5" layerid="11" number="A" net="" plated ="Y"  id="gge717" locked="0" c_rotation="0" c_width="5.9055" c_height="5.9055" title="" c_shape="ELLIPSE" pasteexpansion="0" solderexpansion="0.4"><ellipse c_etype="pad_shell" cx="4075" cy="3013.5" rx="2.95275" ry="2.95275" layerid="11" stroke-width="0"/><circle c_etype="pad_hole" cx="4075" cy="3013.5" r="1.9685" layerid="11" stroke-width="0"/></g><g c_partid="part_pad" c_etype="pinpart" c_origin="4045,3013.5" layerid="11" number="C" net="S$2005" plated ="Y"  id="gge722" locked="0" c_rotation="0" c_width="5.9055" c_height="5.9055" title="S$2005" c_shape="ELLIPSE" pasteexpansion="0" solderexpansion="0.4"><ellipse c_etype="pad_shell" cx="4045" cy="3013.5" rx="2.95275" ry="2.95275" layerid="11" stroke-width="0"/><circle c_etype="pad_hole" cx="4045" cy="3013.5" r="1.9685" layerid="11" stroke-width="0"/></g><g c_partid="part_pad" c_etype="pinpart" c_origin="4050.5,2963.5" layerid="11" number="1" net="" plated ="Y"  id="gge785" locked="0" c_rotation="90" c_width="4.77" c_height="4.77" title="" c_shape="RECT" pasteexpansion="0" solderexpansion="0.4"><polygon  c_etype="pad_shell" points="4048.115 2961.115 4048.115 2965.885 4052.885 2965.885 4052.885 2961.115" layerid="11" stroke-width="0" /><circle c_etype="pad_hole" cx="4050.5" cy="2963.5" r="1.6" layerid="11" stroke-width="0"/></g><g c_partid="part_pad" c_etype="pinpart" c_origin="4050.5,3003.5" layerid="11" number="2" net="" plated ="Y"  id="gge790" locked="0" c_rotation="90" c_width="4.77" c_height="4.77" title="" c_shape="RECT" pasteexpansion="0" solderexpansion="0.4"><polygon  c_etype="pad_shell" points="4048.115 3001.115 4048.115 3005.885 4052.885 3005.885 4052.885 3001.115" layerid="11" stroke-width="0" /><circle c_etype="pad_hole" cx="4050.5" cy="3003.5" r="1.6" layerid="11" stroke-width="0"/></g><g c_partid="part_pad" c_etype="pinpart" c_origin="4070,2963" layerid="11" number="1" net="" plated ="Y"  id="gge826" locked="0" c_rotation="90" c_width="4.77" c_height="4.77" title="" c_shape="RECT" pasteexpansion="0" solderexpansion="0.4"><polygon  c_etype="pad_shell" points="4067.615 2960.615 4067.615 2965.385 4072.385 2965.385 4072.385 2960.615" layerid="11" stroke-width="0" /><circle c_etype="pad_hole" cx="4070" cy="2963" r="1.6" layerid="11" stroke-width="0"/></g><g c_partid="part_pad" c_etype="pinpart" c_origin="4070,3003" layerid="11" number="2" net="" plated ="Y"  id="gge832" locked="0" c_rotation="90" c_width="4.77" c_height="4.77" title="" c_shape="RECT" pasteexpansion="0" solderexpansion="0.4"><polygon  c_etype="pad_shell" points="4067.615 3000.615 4067.615 3005.385 4072.385 3005.385 4072.385 3000.615" layerid="11" stroke-width="0" /><circle c_etype="pad_hole" cx="4070" cy="3003" r="1.6" layerid="11" stroke-width="0"/></g><g c_partid="part_pad" c_etype="pinpart" c_origin="4084.5,2963" layerid="11" number="1" net="" plated ="Y"  id="gge865" locked="0" c_rotation="90" c_width="4.77" c_height="4.77" title="" c_shape="RECT" pasteexpansion="0" solderexpansion="0.4"><polygon  c_etype="pad_shell" points="4082.115 2960.615 4082.115 2965.385 4086.885 2965.385 4086.885 2960.615" layerid="11" stroke-width="0" /><circle c_etype="pad_hole" cx="4084.5" cy="2963" r="1.6" layerid="11" stroke-width="0"/></g><g c_partid="part_pad" c_etype="pinpart" c_origin="4084.5,3003" layerid="11" number="2" net="" plated ="Y"  id="gge871" locked="0" c_rotation="90" c_width="4.77" c_height="4.77" title="" c_shape="RECT" pasteexpansion="0" solderexpansion="0.4"><polygon  c_etype="pad_shell" points="4082.115 3000.615 4082.115 3005.385 4086.885 3005.385 4086.885 3000.615" layerid="11" stroke-width="0" /><circle c_etype="pad_hole" cx="4084.5" cy="3003" r="1.6" layerid="11" stroke-width="0"/></g><g c_partid="part_pad" c_etype="pinpart" c_origin="4034.5,2963.5" layerid="11" number="1" net="" plated ="Y"  id="gge950" locked="0" c_rotation="90" c_width="4.77" c_height="4.77" title="" c_shape="RECT" pasteexpansion="0" solderexpansion="0.4"><polygon  c_etype="pad_shell" points="4032.115 2961.115 4032.115 2965.885 4036.885 2965.885 4036.885 2961.115" layerid="11" stroke-width="0" /><circle c_etype="pad_hole" cx="4034.5" cy="2963.5" r="1.6" layerid="11" stroke-width="0"/></g><g c_partid="part_pad" c_etype="pinpart" c_origin="4034.5,3003.5" layerid="11" number="2" net="" plated ="Y"  id="gge955" locked="0" c_rotation="90" c_width="4.77" c_height="4.77" title="" c_shape="RECT" pasteexpansion="0" solderexpansion="0.4"><polygon  c_etype="pad_shell" points="4032.115 3001.115 4032.115 3005.885 4036.885 3005.885 4036.885 3001.115" layerid="11" stroke-width="0" /><circle c_etype="pad_hole" cx="4034.5" cy="3003.5" r="1.6" layerid="11" stroke-width="0"/></g><g c_partid="part_pad" c_etype="pinpart" c_origin="4060,2918" layerid="11" number="2" net="" plated ="Y"  id="gge1132" locked="0" c_rotation="90" c_width="7.0866" c_height="7.0866" title="" c_shape="ELLIPSE" pasteexpansion="0" solderexpansion="0.4"><ellipse c_etype="pad_shell" cx="4060" cy="2918" rx="3.5433" ry="3.5433" layerid="11" stroke-width="0"/><circle c_etype="pad_hole" cx="4060" cy="2918" r="2.3622" layerid="11" stroke-width="0"/></g><g c_partid="part_pad" c_etype="pinpart" c_origin="4060,2928" layerid="11" number="1" net="" plated ="Y"  id="gge1137" locked="0" c_rotation="90" c_width="7.0866" c_height="7.0866" title="" c_shape="RECT" pasteexpansion="0" solderexpansion="0.4"><polygon  c_etype="pad_shell" points="4056.4567 2931.5433 4056.4567 2924.4567 4063.5433 2924.4567 4063.5433 2931.5433" layerid="11" stroke-width="0" /><circle c_etype="pad_hole" cx="4060" cy="2928" r="2.3622" layerid="11" stroke-width="0"/></g><g c_partid="part_pad" c_etype="pinpart" c_origin="4060,2943" layerid="11" number="2" net="" plated ="Y"  id="gge1150" locked="0" c_rotation="90" c_width="7.0866" c_height="7.0866" title="" c_shape="ELLIPSE" pasteexpansion="0" solderexpansion="0.4"><ellipse c_etype="pad_shell" cx="4060" cy="2943" rx="3.5433" ry="3.5433" layerid="11" stroke-width="0"/><circle c_etype="pad_hole" cx="4060" cy="2943" r="2.3622" layerid="11" stroke-width="0"/></g><g c_partid="part_pad" c_etype="pinpart" c_origin="4060,2953" layerid="11" number="1" net="" plated ="Y"  id="gge1155" locked="0" c_rotation="90" c_width="7.0866" c_height="7.0866" title="" c_shape="RECT" pasteexpansion="0" solderexpansion="0.4"><polygon  c_etype="pad_shell" points="4056.4567 2956.5433 4056.4567 2949.4567 4063.5433 2949.4567 4063.5433 2956.5433" layerid="11" stroke-width="0" /><circle c_etype="pad_hole" cx="4060" cy="2953" r="2.3622" layerid="11" stroke-width="0"/></g><g c_partid="part_pad" c_etype="pinpart" c_origin="4046,2913.5" layerid="11" number="1" net="" plated ="Y"  id="gge1245" locked="0" c_rotation="90" c_width="4.77" c_height="4.77" title="" c_shape="RECT" pasteexpansion="0" solderexpansion="0.4"><polygon  c_etype="pad_shell" points="4043.615 2911.115 4043.615 2915.885 4048.385 2915.885 4048.385 2911.115" layerid="11" stroke-width="0" /><circle c_etype="pad_hole" cx="4046" cy="2913.5" r="1.6" layerid="11" stroke-width="0"/></g><g c_partid="part_pad" c_etype="pinpart" c_origin="4046,2953.5" layerid="11" number="2" net="" plated ="Y"  id="gge1250" locked="0" c_rotation="90" c_width="4.77" c_height="4.77" title="" c_shape="RECT" pasteexpansion="0" solderexpansion="0.4"><polygon  c_etype="pad_shell" points="4043.615 2951.115 4043.615 2955.885 4048.385 2955.885 4048.385 2951.115" layerid="11" stroke-width="0" /><circle c_etype="pad_hole" cx="4046" cy="2953.5" r="1.6" layerid="11" stroke-width="0"/></g><g c_partid="part_via" c_etype="pinpart" c_shapetype="group" net="S$1886" c_origin="4027.5,2943" layerid="11" id="gge1887" locked="0" solderexpansion=""><circle cx="4027.5" cy="2943" r="1.2" stroke-width="0" c_etype="pad_shell"/><circle cx="4027.5" cy="2943" r="0.6"  stroke-width="0" c_etype="pad_hole"/></g><g c_partid="part_via" c_etype="pinpart" c_shapetype="group" net="" c_origin="4023,2977.5" layerid="11" id="gge1911" locked="0" solderexpansion=""><circle cx="4023" cy="2977.5" r="1.2" stroke-width="0" c_etype="pad_shell"/><circle cx="4023" cy="2977.5" r="0.6"  stroke-width="0" c_etype="pad_hole"/></g><g c_partid="part_via" c_etype="pinpart" c_shapetype="group" net="S$1899" c_origin="4034.5,2977.5" layerid="11" id="gge1917" locked="0" solderexpansion=""><circle cx="4034.5" cy="2977.5" r="1.2" stroke-width="0" c_etype="pad_shell"/><circle cx="4034.5" cy="2977.5" r="0.6"  stroke-width="0" c_etype="pad_hole"/></g><g c_partid="part_via" c_etype="pinpart" c_shapetype="group" net="S$1924" c_origin="4070,2883.5" layerid="11" id="gge1925" locked="0" solderexpansion=""><circle cx="4070" cy="2883.5" r="1.2" stroke-width="0" c_etype="pad_shell"/><circle cx="4070" cy="2883.5" r="0.6"  stroke-width="0" c_etype="pad_hole"/></g><g c_partid="part_via" c_etype="pinpart" c_shapetype="group" net="" c_origin="4025.5,2996.5" layerid="11" id="gge1932" locked="0" solderexpansion=""><circle cx="4025.5" cy="2996.5" r="1.2" stroke-width="0" c_etype="pad_shell"/><circle cx="4025.5" cy="2996.5" r="0.6"  stroke-width="0" c_etype="pad_hole"/></g><g c_partid="part_via" c_etype="pinpart" c_shapetype="group" net="" c_origin="4056.5,3046.5" layerid="11" id="gge2002" locked="0" solderexpansion=""><circle cx="4056.5" cy="3046.5" r="1.2" stroke-width="0" c_etype="pad_shell"/><circle cx="4056.5" cy="3046.5" r="0.6"  stroke-width="0" c_etype="pad_hole"/></g><g c_partid="part_via" c_etype="pinpart" c_shapetype="group" net="" c_origin="4056.5,3039.5" layerid="11" id="gge2005" locked="0" solderexpansion=""><circle cx="4056.5" cy="3039.5" r="1.2" stroke-width="0" c_etype="pad_shell"/><circle cx="4056.5" cy="3039.5" r="0.6"  stroke-width="0" c_etype="pad_hole"/></g><g c_partid="part_via" c_etype="pinpart" c_shapetype="group" net="S$1907" c_origin="4035,3007.7277" layerid="11" id="gge2022" locked="0" solderexpansion=""><circle cx="4035" cy="3007.7277" r="1.2" stroke-width="0" c_etype="pad_shell"/><circle cx="4035" cy="3007.7277" r="0.6"  stroke-width="0" c_etype="pad_hole"/></g><g c_partid="part_hole" c_etype="pinpart" c_shapetype="group" c_origin="4025.5,2880" layerid="11" id="gge287" locked="0" ><circle cx="4025.5" cy="2880" r="4"  stroke-width="1" fill-opacity="0" /></g><g c_partid="part_hole" c_etype="pinpart" c_shapetype="group" c_origin="4093,2880" layerid="11" id="gge291" locked="0" ><circle cx="4093" cy="2880" r="4"  stroke-width="1" fill-opacity="0" /></g><g c_partid="part_hole" c_etype="pinpart" c_shapetype="group" c_origin="4092.5,3183" layerid="11" id="gge295" locked="0" ><circle cx="4092.5" cy="3183" r="4"  stroke-width="1" fill-opacity="0" /></g><g c_partid="part_hole" c_etype="pinpart" c_shapetype="group" c_origin="4026,3183" layerid="11" id="gge299" locked="0" ><circle cx="4026" cy="3183" r="4"  stroke-width="1" fill-opacity="0" /></g><polyline points="4020 2874.2992 4098.7402 2874.2992 4098.7402 3189.2598 4020 3189.2598 4020 2874.2992" stroke-width="1"  stroke-linecap="round" fill="none" layerid="10" net="" id="gge5" locked="0" /></svg>